<svg preserveAspectRatio="xMidYMid meet" overflow="visible" style="display: block;" viewBox="0 0 959.955 149.076" fill="none" xmlns="http://www.w3.org/2000/svg">
<g id="Andrew Signature NEW">
<path id="Vector" d="M439.638 88.6743C438.93 88.8232 438.076 89.44 437.587 90.4184C435.39 93.9492 433.193 96.14 428.212 97.5013C428.212 97.5013 426.796 97.9267 426.308 97.7991C425.82 97.6714 425.136 96.2676 425.136 96.2676C420.033 87.9086 412.636 85.42 402.772 86.9727C401.234 87.2918 399.476 88.2702 399.451 89.9718C399.11 99.373 408.216 103.265 418.593 103.372L418.91 104.137C422.67 112.305 419.618 129.98 417.982 132.235C416.054 134.915 415.809 135.957 411.781 134.851C401.258 131.278 388.807 114.9 384.314 107.945C383.411 106.498 381.531 106.881 380.994 107.03C379.505 107.434 378.137 108.498 378.381 109.838C378.479 110.327 378.65 111.008 378.821 111.837C379.968 116.58 383.24 132.405 377.014 127.556C371.765 122.621 367.248 106.988 364.489 103.499C359.094 102.691 358.117 99.8835 356.652 100.394C356.091 100.585 354.308 101.33 354.919 102.861C355.578 104.584 370.618 131.703 353.307 133.766C347.839 134.723 338.341 128.917 334.654 126.279C333.849 125.705 333.531 124.854 333.898 124.323C340.197 115.155 341.222 108.37 337.877 101.181C336.534 98.2883 333.483 95.1616 329.625 94.7362C327.33 94.5022 325.035 95.2467 322.764 96.9483C312.461 104.69 316.734 118.984 325.572 128.13C326.231 128.81 323.277 129.917 322.423 130.236C320.274 131.001 318.443 131.044 316.88 130.427C311.949 128.47 313.755 120.622 313.633 114.496C313.633 112.879 313.34 110.901 313.194 110.05C312.413 105.116 303.11 102.436 301.133 98.82C300.303 97.2886 299.546 96.1188 298.618 94.247C298.032 93.0134 293.125 91.6308 291.489 91.9073C290.708 92.0562 289.438 92.5029 289.463 93.9067C289.609 101.989 294.663 129.257 284.14 133.405C280.209 134.957 273.202 123.429 270.102 115.474C269.345 113.517 268.1 111.561 268.808 109.987C278.427 88.4191 278.598 63.2356 271.347 48.4743C266.122 37.1375 262.46 36.627 257.088 35.2445C254.745 34.6489 252.376 34.7766 249.837 35.6699C239.632 39.2858 239.998 75.5508 256.112 107.902C256.283 108.179 257.943 112.539 257.381 114.283C256.698 116.41 250.008 131.469 245.101 133.277C242.488 135.043 227.424 135.425 225.325 111.305C223.811 100.777 234.92 96.7356 239.998 98.7349C241.78 99.4368 242.903 102.755 243.807 101.777C244.319 101.202 247.03 98.033 246.932 96.3953C246.859 95.3105 245.076 94.247 244.393 93.9705C236.116 90.461 229.06 91.7372 221.418 95.7572C214.582 99.9686 208.356 107.349 202.887 117.708C202.594 118.282 197.931 132.958 196.149 131.831C192.999 130.852 190.216 117.048 190.924 108.519C190.827 103.499 192.902 101.33 190.973 97.3524C190.436 96.2251 190.607 96.608 189.655 95.5019C189.191 94.9489 185.577 92.673 181.647 92.5667C179.962 92.5241 176.275 89.1848 174.591 90.0568C167.657 93.694 164.922 105.18 161.553 111.667C161.26 112.263 160.064 112.199 160.039 111.582C159.991 106.371 159.746 101.351 158.648 98.033C156.646 93.9492 149.81 93.3537 148.223 96.3953C146.709 100.075 131.083 122.919 119.267 129.683C119.169 129.746 119.096 129.789 118.974 129.831C118.021 130.257 112.919 132.448 107.059 131.618C105.79 131.342 104.422 130.959 104.032 130.065C103.592 129.151 104.325 128.087 105.057 127.151C106.376 125.535 107.694 123.727 109.134 121.621C116.337 111.114 117.46 104.542 116.85 94.0343C116.85 93.9067 116.85 93.7578 116.801 93.6302C115.58 86.5899 113.456 78.9965 109.598 73.828C108.988 73.0197 119.95 64.1077 118.998 53.8343C119.755 43.795 113.7 27.1407 101.126 15.3572C100.736 14.9956 100.321 14.634 99.8812 14.315C90.5547 7.31721 81.2282 6.65784 69.7532 10.6353C59.499 14.9531 2.73446 44.5181 0 97.8416C0.170904 135.51 31.6417 143.614 50.7585 145.188C59.1572 145.869 66.7014 145.295 73.3422 143.827C81.1794 142.083 88.7724 139.382 94.1925 136.68C97.635 134.979 98.343 139.807 106.278 140.7C118.9 143.763 137.578 125.62 148.638 110.008C148.711 109.944 148.76 109.88 148.809 109.817L151.104 108.03C152.739 120.026 151.616 132.618 150.689 139.467C150.518 140.764 152.105 141.53 153.716 141.594C159.283 141.721 158.648 137.084 159.038 135.83L160.186 131.852C162.579 123.599 172.296 106.669 172.833 106.116C176.275 102.564 178.766 106.116 178.961 111.348C179.4 123.833 185.138 138.765 191.559 141.402C196.295 141.7 198.786 138.935 200.91 136.042C202.277 134.149 204.328 128.343 206.135 124.535C207.844 120.962 209.748 116.942 212.019 113.05L213.874 109.838L213.825 113.198C213.777 120.622 216.389 128.087 221.199 134.277C225.203 139.445 230.965 142.87 236.653 143.423C240.584 143.827 244.515 142.891 248.372 140.7C255.062 136.872 264.608 119.133 264.608 119.133C270.712 125.96 273.739 141.062 284.14 139.126C294.126 137.297 295.591 123.344 297.959 111.433L298.545 108.54C298.667 107.902 299.668 107.817 300.449 108.349L301.963 109.838C302.891 110.476 303.403 111.39 303.281 112.135C302.598 115.9 302.158 127.513 310.972 135.298C313.194 136.936 315.538 137.659 317.906 137.467C321.861 137.106 325.597 134.277 327.965 131.937L328.722 131.193L329.503 131.831C337.584 138.658 347.106 141.764 355.602 140.339C361.462 139.382 365.393 136.574 367.395 132.001C367.59 131.576 368.274 131.49 368.884 131.873L373.474 135.617C375.94 137.17 379.334 138.722 382.776 137.403C390.003 134.617 384.925 120.494 385.755 120.834C386.78 121.238 388.904 123.791 388.904 123.791C396.912 133.915 403.333 138.85 411.976 141.275C415.858 142.381 419.301 142.359 422.108 141.232C425.527 139.85 428.09 136.872 429.409 132.597C431.508 125.939 432.46 112.879 428.603 102.819L428.359 102.138L429.335 101.925C437.246 100.203 441.738 96.927 444.253 91.6095C444.741 90.5673 444.472 89.4613 443.96 89.0997C442.251 87.8235 439.614 88.6105 439.614 88.6105L439.638 88.6743ZM418.227 98.9264C417.518 99.5432 414.222 98.5222 414.222 98.5222C409.217 96.9908 407.655 95.5657 407.142 93.8216C406.874 93.0134 407.337 92.6305 407.777 92.4603C411.976 91.8222 418.935 98.3095 418.227 98.9264ZM89.9932 130.129C84.3533 134.979 57.3261 142.296 36.9397 134.234C6.39669 119.005 13.3061 86.1645 14.4292 81.4851C26.0751 36.542 64.6994 23.0356 74.8804 19.8877C78.7135 18.7178 85.4032 19.3134 89.1875 23.0569C97.8792 32.9474 107.987 45.5178 104.251 64.8946C103.885 65.8731 103.47 66.5324 102.591 66.894C95.6818 64.5543 91.2383 63.7886 87.2587 63.6397C78.86 63.3419 74.3921 67.681 72.3412 74.3384C70.2904 80.9534 71.6332 87.3343 72.9272 93.5451C73.1957 94.9276 74.856 100.883 74.9292 101.649C75.0269 102.627 74.7583 104.052 73.6596 104.946C65.0168 111.795 56.3983 114.219 44.4106 112.39C40.9681 111.773 37.9163 111.029 35.426 109.115C32.252 106.222 20.4597 101.649 23.5115 109.944C26.6854 115.24 32.8136 116.559 36.6223 117.325C56.4716 121.579 73.5131 112.964 77.6148 110.646C78.0299 110.412 79.0065 110.774 79.3239 111.305L90.4082 128.215C90.9453 129.087 90.5547 129.597 89.9688 130.108L89.9932 130.129ZM97.6594 78.3797C95.1935 81.868 86.6972 92.6943 84.1824 95.8848C83.9627 96.1826 83.0594 95.8422 82.8884 95.4168C80.8864 90.7162 75.1001 75.1254 83.9871 70.5099C86.3798 69.5315 89.456 69.6165 93.3624 70.7438C97.1467 71.8286 99.0267 72.4241 99.5394 73.594C100.101 74.7426 99.1487 76.1889 97.5374 78.4435L97.6106 78.3797H97.6594ZM100.003 124.514C99.5394 125.492 89.9199 108.179 89.2851 107.094C88.04 104.903 87.1366 102.266 88.455 100.649L104.935 79.4857L105.521 80.7194C119.047 106.839 101.859 124.578 100.028 124.535L100.003 124.514ZM260.824 98.2032C260.507 99.0752 258.822 98.6924 258.48 97.6502L255.575 88.3553C253.89 82.9527 252.669 77.614 251.961 72.3391C250.326 60.2153 249.032 40.7108 257.943 43.3696C262.313 43.6035 267.709 78.8264 260.848 98.1819L260.824 98.2032ZM333.214 112.943H333.165C332.848 114.921 330.333 121.834 329.576 121.728C328.819 121.621 320.933 107.243 326.012 102.797C327.428 101.521 328.819 101.053 330.04 101.351C333.971 102.33 333.409 111.688 333.214 112.943Z" fill="var(--fill-0, white)"/>
<path id="Vector_2" d="M602.824 115.742C601.383 114.36 597.965 111.488 596.5 110.467C594.229 108.787 593.277 109.149 593.18 109.978C593.277 109.149 594.229 108.766 596.5 110.467C597.965 111.467 601.383 114.338 602.824 115.742C602.946 115.849 602.994 116.061 602.994 116.317C602.994 116.04 602.946 115.849 602.824 115.742Z" fill="var(--fill-0, white)"/>
<path id="Vector_3" d="M623.053 130.909C616.852 128.017 613.776 125.911 610.138 123.018C609.113 122.21 608.795 123.401 607.99 124.103C606.842 125.103 605.914 127.251 605.817 128.017C605.914 127.251 606.842 125.081 607.99 124.103C608.795 123.401 609.113 122.21 610.138 123.018C613.776 125.911 616.877 128.017 623.053 130.909Z" fill="var(--fill-0, white)"/>
<path id="Vector_4" d="M614.719 108.094C614.353 107.222 613.083 106.988 612.766 107.732C613.083 106.967 614.353 107.2 614.719 108.094Z" fill="var(--fill-0, white)"/>
<path id="Vector_5" d="M610.485 115.554C610.242 115.216 610.121 114.856 610.072 114.497C610.121 114.856 610.242 115.195 610.485 115.554Z" fill="var(--fill-0, white)"/>
<path id="Vector_6" d="M563.665 101.75C556.804 81.9057 548.259 87.9464 548.186 90.4349C547.698 92.6044 547.527 94.7314 547.649 96.7946C547.551 94.7314 547.698 92.6044 548.186 90.4349C548.259 87.9464 556.804 81.9057 563.665 101.75C564.886 105.26 565.643 110.003 565.569 114.087C565.643 109.982 564.886 105.239 563.665 101.75Z" fill="var(--fill-0, white)"/>
<g id="Vector_7">
</g>
<path id="Vector_8" d="M791.453 125.242C791.453 125.242 791.254 125.027 791.155 124.92C791.254 125.027 791.354 125.135 791.453 125.242Z" fill="var(--fill-0, white)"/>
<path id="Vector_9" d="M783.652 114.048C782.627 112.027 781.675 109.815 780.869 107.454C781.675 109.815 782.627 112.006 783.652 114.048Z" fill="var(--fill-0, white)"/>
<path id="Vector_10" d="M786.292 118.703C785.828 118.001 785.389 117.256 784.949 116.469C785.389 117.256 785.853 118.001 786.292 118.703Z" fill="var(--fill-0, white)"/>
<path id="Vector_11" d="M815.885 116.793C814.665 112.624 808.048 95.8423 806.998 93.6727C803.41 86.2496 789.127 75.9975 786.392 75.9337C783.511 75.9337 780.899 77.7416 779.654 80.9321C780.899 77.7416 783.487 75.9337 786.392 75.9337C789.102 75.9975 803.41 86.2496 806.998 93.6727C808.048 95.8423 814.665 112.624 815.885 116.793C815.983 117.112 816.032 117.474 816.056 117.814C816.056 117.452 815.983 117.112 815.885 116.793Z" fill="var(--fill-0, white)"/>
<path id="Vector_12" d="M669.489 103.246C669.733 102.416 670.051 100.736 671.32 100.736C672.59 100.736 673.688 103.501 673.688 103.501C673.688 103.501 679.743 121.282 680.134 122.793C680.232 123.175 680.28 123.473 680.256 123.728C680.256 123.473 680.256 123.175 680.134 122.793C679.743 121.282 673.688 103.501 673.688 103.501C673.688 103.501 672.59 100.736 671.32 100.736C670.051 100.736 669.733 102.416 669.489 103.246L666.632 112.54C666.486 113.115 666.339 113.647 666.339 114.263C666.339 113.647 666.486 113.093 666.632 112.54L669.489 103.246Z" fill="var(--fill-0, white)"/>
<path id="Vector_13" d="M661.257 133.093C661.257 133.093 661.104 132.916 661.027 132.85C661.104 132.938 661.18 133.027 661.257 133.093Z" fill="var(--fill-0, white)"/>
<path id="Vector_14" d="M663.773 121.062C663.114 120.403 662.528 120.509 662.357 120.935C661.869 122.168 659.476 125.933 658.402 127.401C658.207 127.656 658.133 127.954 658.133 128.273C658.133 127.954 658.231 127.656 658.402 127.401C659.476 125.954 661.869 122.19 662.357 120.935C662.528 120.488 663.114 120.382 663.773 121.062Z" fill="var(--fill-0, white)"/>
<path id="Vector_15" d="M957.57 113.027C955.86 109.666 953.565 106.135 950.977 102.626C950.392 101.839 949.415 101.392 948.414 101.435L947.144 101.499C946.803 101.499 946.485 101.477 946.143 101.371L943.36 100.52C942.213 100.159 940.943 100.371 939.966 101.073C939.38 101.499 939.283 102.328 939.771 102.86C942.213 105.561 944.263 108.028 945.679 110.028C959.156 126.087 929.029 159.161 891.332 123.747C885.546 117.174 885.179 110.794 883.519 104.221C882.909 101.796 880.443 90.4383 879.588 87.2265C879.027 85.2484 875.267 84.0786 872.459 84.2062C869.945 84.3551 869.481 85.3335 868.944 87.2053C868.358 89.1408 868.187 91.0976 868.04 92.9481C867.967 93.8202 868.211 100.222 868.284 101.605C868.382 104.838 868.528 108.199 868.431 111.517C868.284 117.004 867.747 122.534 867.308 127.256C867.186 128.001 866.868 128.958 866.209 129.809L866.16 129.873C865.159 131.234 863.255 130.532 861.595 129.256C858.885 127.171 856.394 122.194 855.833 121.088C853.587 116.855 851.536 108.879 851.218 104.221C850.925 99.9033 850.901 95.5218 850.877 91.2678C850.877 89.6726 850.877 88.0773 850.828 86.5246C850.779 83.3342 849.9 82.7386 847.996 82.6961C846.555 82.6323 845.505 82.8449 844.797 83.3129C843.992 83.8446 843.528 84.823 843.357 86.2056C842.942 90.183 842.893 98.4783 843.113 105.965C843.308 109.156 840.134 125.087 840.134 125.087C839.988 126.108 839.109 128.894 837.302 128.086C836.594 128.086 834.787 125.108 834.25 123.151C828.097 107.178 823.385 90.1192 822.751 88.7792C821.31 85.6313 819.748 82.377 818.112 79.2716C817.33 77.8253 815.499 75.5281 811.984 76.5065C811.373 76.6767 809.664 78.1656 808.297 79.4418C807.272 80.3989 805.392 80.1649 804.22 78.91L803.878 78.5697C803.878 78.5697 803.78 78.4634 803.731 78.4208C800.753 75.6345 797.872 73.0183 793.355 71.6145C787.764 69.8703 780.049 71.3805 776.582 74.9326C773.384 78.1869 771.26 82.0792 770.039 87.1627C768.745 92.4376 771.064 104.285 775.02 114.665C775.215 115.09 776.338 117.323 777.437 119.514C778.584 121.769 776.484 123.662 774.092 122.556C773.994 122.513 772.993 122.109 771.821 121.641C768.623 120.365 765.62 118.408 763.276 115.856C757.807 109.9 756.049 104.455 753.974 99.6268C753.119 97.6275 750.116 89.1408 748.993 86.2056C748.334 84.4827 743.72 82.1218 741.156 82.0367C739.667 81.9729 737.47 85.8015 736.542 87.2053C736.322 87.5456 735.76 87.4818 735.443 87.1202C734.027 85.4824 732.831 82.6322 731.244 81.7389C728.192 79.9948 724.603 80.5691 722.991 80.718C720.672 80.9519 721.722 82.058 718.841 86.2269L717.107 89.2046C716.741 89.8427 715.643 89.5875 715.325 88.8005C714.373 86.397 712.859 82.6322 712.371 81.9942C710.735 79.8884 707.781 81.9729 706.585 82.2281C704.094 82.9726 702.385 83.5256 702.288 84.7805C701.897 86.5459 703.606 115.813 690.544 127.15C690.178 127.469 689.226 124.598 688.591 122.513C684.587 109.517 676.774 90.5872 676.213 88.4602C672.99 76.783 671.501 66.0205 670.036 65.0634C667.081 63.2129 663.834 65.1485 660.123 68.2326C659.293 70.785 662.394 72.8907 663.541 77.017C665.617 86.3332 666.691 97.5637 660.563 111.113C660.465 111.325 660.221 111.474 659.952 111.41C657.218 110.602 651.139 102.902 649.967 102.009C648.16 100.435 647.183 100.307 645.596 100.754C645.108 100.903 643.204 101.711 643.887 104.838C644.547 107.816 646.549 119.812 648.551 124.895C649.429 126.469 647.134 126.916 645.645 127.15C641.543 127.916 639.566 128.107 635.562 127.193C631.485 126.257 630.044 122.598 629.214 120.173C626.919 113.24 619.692 95.6281 618.862 90.0767C618.276 86.163 618.545 82.0367 618.764 78.0592C618.838 76.6767 618.935 75.2729 618.984 73.9116C619.033 72.3164 618.642 69.6577 615.444 69.6577C614.419 69.6577 613.637 69.8491 613.051 70.2532C612.172 70.87 609.438 71.3592 609.316 73.0608C609.145 75.358 610.537 78.123 610.439 80.4415C610.317 83.1427 604.018 110.708 603.188 110.24C599.941 108.369 593.422 100.456 588.978 102.179C587.684 102.775 584.437 104.498 587.953 113.261C589.125 116.302 590.687 119.28 592.225 122.173C592.763 123.194 593.3 124.193 593.812 125.214L594.032 125.619C594.716 126.895 593.178 130.851 589.784 131.553C580.848 133.425 574.915 131.659 568.885 129.32C565.345 127.214 577.601 125.214 568.128 98.6059C564.71 89.0345 557.923 82.3557 550.94 81.3986C546.399 80.803 543.811 81.4624 541.54 84.2062C531.579 100.903 547.327 120.641 553.455 126.32C554.505 127.299 550.891 129.022 549.695 129.405C544.787 131 538.269 132.425 521.618 126.214C517.955 125.023 515.734 124.236 516.246 122.194C516.246 122.194 527.721 80.4202 530.822 74.9113C531.017 74.571 531.335 74.3157 531.701 74.1669C593.764 50.4085 566.053 14.6113 558.24 6.5288C558.191 6.48626 558.167 6.46499 558.118 6.42245C552.258 1.06246 539.416 -5.14833 533.874 7.08182C529.064 14.4624 521.471 60.1075 518.908 70.2957C518.615 72.4015 510.875 73.9967 508.653 74.4859C495.762 77.3148 490.806 78.3357 478.721 74.6561C474.961 73.5288 458.188 64.0424 454.233 62.8726C453.94 62.83 453.647 62.8088 453.354 62.7662C450.229 62.8726 448.153 64.4465 447.787 67.5732C447.299 69.4662 447.128 70.5935 449.521 71.1465C453.158 72.0611 457.016 73.231 460.947 74.6135C463.144 75.4005 474.863 80.1649 478.843 81.1859C486.363 83.1002 495.054 83.3342 504.698 81.824C505.602 81.6751 512.975 79.6332 514.073 79.3992C516.222 78.9313 513.488 84.5891 512.853 86.5672C510.607 93.4586 506.773 105.71 505.699 111.793C505.431 113.282 503.355 112.389 501.646 111.027C496.666 107.05 493.98 103.753 489.61 98.8186C486.9 95.7557 478.696 89.3748 476.401 87.6945C470.029 83.8446 468.467 85.5037 467.295 85.844C460.141 90.1618 461.997 126.64 487.779 143.889C492.393 147.016 495.933 149.93 500.621 148.845C508.043 147.952 512.56 135.424 514.22 130.872C514.537 129.979 515.905 129.639 517.321 130.085C520.958 131.213 527.477 133.276 529.723 133.978C539.904 137.104 547.937 137.04 555.725 133.637C557.337 132.935 558.753 133.85 565.857 136.658C581.703 140.422 591.151 138.338 596.083 134.573C599.233 132.191 601.112 133.063 603.212 134.446C607.827 137.487 629.092 154.822 634.756 138.551C635.635 136.275 635.464 133.722 636.123 133.85C644.498 135.509 652.188 131.468 652.53 131.744C655.167 136.402 664.64 141.167 669.108 142.72C674.406 144.506 685.051 146.165 690.373 139.21C692.717 136.381 691.447 134.68 692.375 134.318C693.669 133.531 696.941 131.617 698.528 129.468C708.269 115.218 707.024 100.371 708.196 99.8821C708.953 99.563 712.884 127.32 714.959 136.615C715.252 138.891 719.451 138.827 722.479 139.848C724.969 139.423 726.239 138.359 726.165 137.338C725.946 134.637 724.383 130.362 724.066 127.66C723.529 123.151 721.82 114.856 721.697 110.198C720.843 97.7126 723.431 94.5434 724.481 93.0332C725.995 90.8424 728.216 91.0126 729.583 93.1608C730.047 93.884 730.414 94.5221 730.585 94.9049C732.294 99.1164 738.373 128.788 739.203 131.638C739.594 132.978 743.793 133.34 745.282 133.467C746.625 133.552 747.773 133.999 748.407 133.297C749.262 132.276 749.677 130.766 749.36 129.362C748.896 127.32 743.524 106.603 743.06 103.817C742.938 103.094 741.742 97.2234 741.62 94.6497C741.522 92.9056 743.573 91.0126 745.209 94.0967C749.213 101.584 751.801 113.516 762.763 123.045C767.915 127.044 771.675 129.766 778.12 132.489C781.856 134.063 791.646 136.317 794.551 137.466C801.29 140.146 807.467 139.848 814.62 137.104C816.085 136.551 817.501 135.871 818.722 134.999C821.798 132.765 823.288 130.319 824.484 130.447C826.047 130.638 826.486 135.552 832.565 140.103C834.445 141.486 836.985 142.103 839.548 141.762C841.916 141.443 843.967 140.38 845.334 138.721C846.238 137.636 848.728 130.957 849.729 128.256C849.924 127.746 850.657 127.724 851.096 128.213L855.54 133.127C858.567 136.658 864.451 137.827 868.651 135.722C871.849 134.127 872.752 131.532 873.241 129.213C873.753 126.661 874.412 114.431 875.316 114.941L878.172 118.621C888.72 132.531 901.147 138.806 908.447 141.146C932.031 149.824 950.416 141.571 954.249 136.126C958.302 130.362 962.843 123.407 957.57 113.069V113.027ZM533.239 60.4691L535.095 49.8767C535.485 47.1754 539.343 26.1609 542.346 16.6107C543.249 13.718 545.105 8.25166 549.109 10.6339C556.384 14.9729 561.17 22.4812 561.585 31.372C561.902 38.2847 559.583 46.0056 553.699 53.7478C550.623 58.1932 539.514 62.8726 533.215 66.4246C532.873 66.6161 532.678 66.4246 532.58 65.9567C532.531 65.7653 532.531 65.51 532.531 65.2335C532.531 63.7234 533.019 61.3199 533.215 60.4904L533.239 60.4691ZM501.573 121.45C501.573 121.45 498.35 131.34 496.006 136.083C495.372 137.381 489.488 136.062 487.51 135.126C472.08 127.852 470.151 111.347 470.151 103.54C470.151 100.946 470.371 99.3078 470.371 99.3078C470.102 96.5853 473.862 95.4792 476.938 97.4999C484.702 102.583 492.271 110.857 496.715 114.558C500.181 118.238 501.964 119.344 501.768 120.79C501.744 121.003 501.671 121.216 501.573 121.45ZM563.611 121.577C563.099 122.173 562.854 123.215 561.853 122.471C561.853 122.471 548.328 111.261 547.595 96.8192C547.497 94.7561 547.644 92.6291 548.132 90.4595C548.205 87.971 556.751 81.9303 563.611 101.775C564.832 105.285 565.589 110.028 565.516 114.112C565.442 117.302 564.881 120.088 563.611 121.599V121.577ZM599.599 122.598C598.207 121.599 593.3 111.453 593.129 110.389C593.129 110.262 593.104 110.134 593.129 110.007C593.226 109.177 594.179 108.794 596.449 110.496C597.914 111.495 601.332 114.367 602.773 115.771C602.895 115.877 602.944 116.09 602.944 116.345C602.944 118.217 600.527 123.279 599.599 122.62V122.598ZM612.71 107.731C613.027 106.965 614.296 107.199 614.663 108.092L619.033 118.514C619.082 118.621 619.106 118.748 619.106 118.855C619.106 119.642 618.154 120.28 617.348 119.854L613.491 118.004C611.904 117.026 610.976 116.281 610.488 115.537C610.244 115.196 610.122 114.835 610.073 114.473C610.073 114.452 610.073 114.409 610.073 114.388C609.951 112.92 611.245 111.155 612.758 107.688L612.71 107.731ZM622.134 134.36C621.572 135.615 620.205 136.296 618.642 136.168C617.446 136.062 615.371 135.318 614.907 135.084C612.05 133.637 610.195 132.531 607.778 130.872C606.24 129.83 605.849 129.383 605.825 128.447C605.825 128.32 605.825 128.171 605.825 128.022C605.922 127.256 606.85 125.087 607.997 124.108C608.803 123.407 609.121 122.215 610.146 123.024C613.784 125.916 616.884 128.022 623.061 130.915C623.061 130.979 623.061 131.064 623.061 131.17C623.013 131.893 622.451 133.552 622.085 134.36H622.134ZM666.618 112.516L669.474 103.221C669.718 102.392 670.036 100.712 671.305 100.712C672.575 100.712 673.673 103.477 673.673 103.477C673.673 103.477 679.728 121.258 680.119 122.768C680.217 123.151 680.265 123.449 680.241 123.704C680.192 124.449 679.606 124.619 678.532 124.385C677.092 124.066 669.474 121.492 667.716 118.238C666.593 116.473 666.276 115.281 666.3 114.26C666.3 113.644 666.447 113.091 666.593 112.538L666.618 112.516ZM656.095 122.067C655.362 123.002 654.752 124.172 654.142 123.704C653.531 123.236 653.165 121.599 652.433 119.131C651.7 116.664 650.357 110.708 650.357 110.708C650.357 110.708 650.064 109.751 650.772 109.985C651.505 110.219 652.896 112.24 654.972 113.75C657.047 115.281 658.756 116.302 658.756 116.813C658.756 117.323 657.804 119.153 657.804 119.153C657.804 119.153 656.803 121.109 656.07 122.045L656.095 122.067ZM678.801 134.701C678.166 135.509 677.36 136.445 676.774 136.828C674.845 138.019 672.184 138.125 669.645 137.36C665.446 136.126 663.004 134.85 661.197 133.084C661.124 133.02 661.051 132.914 660.978 132.85C660.001 131.829 659.171 130.681 658.341 129.256C658.146 128.937 658.072 128.596 658.072 128.277C658.072 127.958 658.17 127.66 658.341 127.405C659.415 125.959 661.808 122.194 662.296 120.939C662.467 120.493 663.053 120.386 663.712 121.067C663.712 121.067 672.306 130.255 679.24 130.957C680.217 131.064 680.485 131.51 680.388 132.085C680.241 133.02 679.142 134.275 678.801 134.701ZM812.594 125.448C810.983 127.299 803.463 135.403 792.598 126.342C792.208 126.023 791.817 125.661 791.378 125.236C791.28 125.129 791.182 125.023 791.085 124.917C789.571 123.385 787.886 121.28 786.25 118.706C785.786 118.004 785.347 117.26 784.908 116.473C784.468 115.707 784.029 114.899 783.614 114.048C782.588 112.027 781.636 109.815 780.83 107.454C780.635 106.88 780.44 106.284 780.269 105.689C778.071 98.4145 777.241 89.8853 779.634 80.9307C780.879 77.7402 783.467 75.9323 786.372 75.9323C789.082 75.9961 803.39 86.2481 806.979 93.6713C808.028 95.8408 814.645 112.623 815.866 116.792C815.963 117.111 816.012 117.472 816.037 117.813C816.134 120.301 814.45 123.343 812.643 125.427L812.594 125.448Z" fill="var(--fill-0, white)"/>
<path id="Vector_16" d="M610.072 114.522C610.072 114.522 610.072 114.449 610.072 114.425C610.072 114.449 610.072 114.498 610.072 114.522Z" fill="var(--fill-0, white)"/>
<path id="Vector_17" d="M617.402 119.878L613.544 118.027C611.957 117.049 611.03 116.305 610.541 115.56C611.03 116.283 611.982 117.049 613.544 118.027L617.402 119.878C618.208 120.282 619.184 119.644 619.16 118.878C619.16 119.665 618.208 120.303 617.402 119.878Z" fill="var(--fill-0, white)"/>
<path id="Vector_18" d="M599.66 122.593C598.269 121.594 593.361 111.448 593.19 110.384C593.19 110.257 593.166 110.129 593.19 110.002C593.19 110.129 593.19 110.257 593.19 110.384C593.361 111.448 598.269 121.594 599.66 122.593C600.588 123.253 603.03 118.19 603.005 116.319C603.005 118.19 600.588 123.253 599.66 122.593Z" fill="var(--fill-0, white)"/>
<path id="Vector_19" d="M496 136.082C495.365 137.38 489.481 136.061 487.503 135.125C489.457 136.04 495.341 137.38 496 136.082Z" fill="var(--fill-0, white)"/>
<path id="Vector_20" d="M561.869 122.47C562.87 123.214 563.139 122.172 563.627 121.576C563.114 122.172 562.87 123.214 561.869 122.47Z" fill="var(--fill-0, white)"/>
<path id="Vector_21" d="M618.634 136.163C617.438 136.056 615.363 135.312 614.899 135.078C612.018 133.631 610.187 132.525 607.77 130.866C606.232 129.824 605.841 129.377 605.817 128.442C605.817 129.377 606.207 129.824 607.77 130.866C610.187 132.525 612.042 133.631 614.899 135.078C615.363 135.312 617.438 136.056 618.634 136.163C620.197 136.29 621.564 135.588 622.126 134.355C622.492 133.568 623.054 131.909 623.102 131.164C623.054 131.887 622.492 133.546 622.126 134.355C621.564 135.61 620.197 136.29 618.634 136.163Z" fill="var(--fill-0, white)"/>
<path id="Vector_22" d="M812.654 125.473C811.043 127.302 803.523 135.384 792.658 126.345C792.268 126.026 791.877 125.664 791.437 125.239C791.853 125.643 792.268 126.026 792.658 126.345C803.523 135.384 811.043 127.302 812.654 125.473C814.485 123.367 816.17 120.304 816.048 117.816C816.145 120.304 814.461 123.346 812.654 125.43V125.473Z" fill="var(--fill-0, white)"/>
<g id="Vector_23">
</g>
<path id="Vector_24" d="M784.927 116.472C784.487 115.707 784.048 114.898 783.633 114.048C784.048 114.877 784.487 115.685 784.927 116.472Z" fill="var(--fill-0, white)"/>
<path id="Vector_25" d="M791.134 124.911C789.621 123.379 787.936 121.274 786.3 118.7C787.96 121.274 789.645 123.379 791.134 124.911Z" fill="var(--fill-0, white)"/>
<path id="Vector_26" d="M667.757 118.235C666.634 116.469 666.316 115.278 666.341 114.257C666.341 115.278 666.634 116.49 667.757 118.235Z" fill="var(--fill-0, white)"/>
<path id="Vector_27" d="M676.852 136.828C674.924 138.019 672.262 138.126 669.723 137.36C672.262 138.104 674.924 138.019 676.852 136.828C677.438 136.467 678.244 135.51 678.879 134.701C678.244 135.51 677.438 136.445 676.852 136.828Z" fill="var(--fill-0, white)"/>
<path id="Vector_28" d="M658.133 128.279C658.133 128.598 658.231 128.938 658.402 129.258C659.232 130.661 660.038 131.831 661.039 132.852C660.062 131.831 659.232 130.683 658.402 129.258C658.207 128.938 658.133 128.598 658.133 128.279Z" fill="var(--fill-0, white)"/>
</g>
</svg>
