<svg width="129" height="129" viewBox="0 0 129 129" fill="none" xmlns="http://www.w3.org/2000/svg">
<path d="M49.5944 90.6828L90.6643 64.5031L49.5944 38.3233V90.6828ZM64.5017 129.006C55.6519 129.006 47.3135 127.313 39.4865 123.927C31.6594 120.542 24.815 115.918 18.9532 110.058C13.0914 104.197 8.46684 97.3538 5.07942 89.5286C1.69314 81.7045 0 73.3666 0 64.515C0 55.5932 1.69258 47.2072 5.07773 39.3571C8.46288 31.5069 13.0852 24.6786 18.9447 18.8722C24.8043 13.0658 31.6459 8.46857 39.4695 5.08046C47.292 1.69349 55.6282 0 64.478 0C73.3979 0 81.7822 1.69292 89.6307 5.07877C97.4793 8.46461 104.306 13.0596 110.111 18.8638C115.917 24.6679 120.513 31.4933 123.9 39.3401C127.287 47.1868 128.98 55.5705 128.98 64.4912C128.98 73.3428 127.287 81.683 123.902 89.5116C120.517 97.3402 115.923 104.186 110.12 110.049C104.317 115.912 97.4928 120.538 89.6477 123.926C81.8026 127.313 73.4206 129.006 64.5017 129.006ZM64.4899 121.301C80.2944 121.301 93.71 115.77 104.737 104.707C115.763 93.6432 121.277 80.2418 121.277 64.5031C121.277 48.6953 115.763 35.277 104.737 24.2481C93.71 13.2192 80.2944 7.70473 64.4899 7.70473C48.7543 7.70473 35.3557 13.2192 24.294 24.2481C13.2334 35.277 7.70314 48.6953 7.70314 64.5031C7.70314 80.2418 13.2334 93.6432 24.294 104.707C35.3557 115.77 48.7543 121.301 64.4899 121.301Z" fill="white"/>
</svg>
