<svg width="380" height="59" viewBox="0 0 380 59" fill="none" xmlns="http://www.w3.org/2000/svg">
<path d="M259.212 45.0121C258.391 44.4061 257.841 43.615 257.551 43.5224C257.261 43.4298 257.386 43.8085 257.386 43.8085C257.386 43.8085 257.918 46.1736 258.208 47.1415C258.497 48.1178 258.642 48.7658 258.884 48.951C259.125 49.1362 259.367 48.6733 259.657 48.3029C259.947 47.9326 260.343 47.1583 260.343 47.1583C260.343 47.1583 260.719 46.4429 260.719 46.2325C260.719 46.0221 260.043 45.6181 259.222 45.0205L259.212 45.0121Z" fill="white"/>
<path d="M173.964 35.0884C173.684 35.1474 173.346 35.3914 173.153 35.7786C172.283 37.1757 171.414 38.0426 169.443 38.5813C169.443 38.5813 168.883 38.7496 168.689 38.6991C168.496 38.6486 168.226 38.0931 168.226 38.0931C166.207 34.7855 163.279 33.8007 159.376 34.4151C158.768 34.5414 158.072 34.9285 158.062 35.6018C157.927 39.3219 161.531 40.8621 165.637 40.9042L165.762 41.2072C167.25 44.4391 166.042 51.4332 165.395 52.3253C164.632 53.3858 164.535 53.7982 162.941 53.3605C158.777 51.9466 153.85 45.4659 152.073 42.7137C151.715 42.1414 150.971 42.2929 150.759 42.3518C150.169 42.5117 149.628 42.9326 149.725 43.4628C149.764 43.6564 149.831 43.9257 149.899 44.254C150.353 46.1308 151.648 52.3927 149.184 50.4737C147.107 48.5211 145.32 42.335 144.228 40.9547C142.093 40.6349 141.706 39.5239 141.127 39.7259C140.905 39.8017 140.199 40.0962 140.441 40.7022C140.702 41.3839 146.653 52.1149 139.803 52.9313C137.639 53.31 133.881 51.0124 132.422 49.9687C132.104 49.7415 131.978 49.4048 132.123 49.1944C134.615 45.5669 135.021 42.8821 133.698 40.0373C133.166 38.8927 131.959 37.6555 130.432 37.4871C129.524 37.3946 128.616 37.6891 127.717 38.3624C123.641 41.426 125.331 47.0819 128.828 50.701C129.089 50.9703 127.92 51.4079 127.582 51.5342C126.732 51.8372 126.007 51.854 125.389 51.6099C123.438 50.8356 124.153 47.7299 124.104 45.306C124.104 44.6664 123.988 43.8836 123.93 43.547C123.621 41.5944 119.94 40.5339 119.158 39.1031C118.829 38.4971 118.53 38.0342 118.163 37.2936C117.931 36.8054 115.989 36.2583 115.342 36.3677C115.033 36.4267 114.53 36.6034 114.54 37.1589C114.598 40.3571 116.598 51.147 112.434 52.7882C110.878 53.4026 108.106 48.8409 106.879 45.6932C106.579 44.9188 106.087 44.1445 106.367 43.5217C110.173 34.9874 110.241 25.0224 107.372 19.1814C105.304 14.6954 103.855 14.4934 101.73 13.9463C100.802 13.7107 99.865 13.7612 98.8603 14.1147C94.822 15.5455 94.9669 29.8955 101.343 42.6969C101.411 42.8063 102.068 44.5317 101.845 45.2218C101.575 46.0635 98.9279 52.0223 96.9861 52.7377C95.9523 53.4363 89.9915 53.5878 89.1607 44.0435C88.5617 39.8774 92.9575 38.2783 94.9669 39.0694C95.6722 39.3472 96.1166 40.6601 96.474 40.273C96.6769 40.0457 97.7493 38.7917 97.7106 38.1436C97.6816 37.7144 96.9764 37.2936 96.7059 37.1841C93.4308 35.7954 90.6388 36.3004 87.615 37.8911C84.9099 39.5576 82.4464 42.4781 80.2823 46.5769C80.1664 46.8041 78.3211 52.6115 77.6159 52.1654C76.3696 51.7783 75.2683 46.316 75.5485 42.941C75.5098 40.9547 76.331 40.0962 75.5678 38.5224C75.3552 38.0763 75.4229 38.2278 75.0461 37.7901C74.8625 37.5713 73.4327 36.6707 71.8773 36.6287C71.2107 36.6118 69.7519 35.2904 69.0853 35.6355C66.3416 37.0747 65.2596 41.6196 63.9264 44.1866C63.8104 44.4223 63.337 44.397 63.3274 44.153C63.3081 42.0909 63.2115 40.1046 62.7767 38.7917C61.9845 37.1757 59.2795 36.9401 58.6515 38.1436C58.0525 39.5997 51.8695 48.6389 47.1936 51.3153C47.155 51.3406 47.126 51.3574 47.0777 51.3743C46.7009 51.5426 44.6818 52.4095 42.3632 52.0812C41.8608 51.9718 41.3198 51.8203 41.1652 51.4668C40.9913 51.1049 41.2811 50.6841 41.571 50.3138C42.0927 49.6741 42.6144 48.9587 43.1843 48.1255C46.0343 43.9678 46.4787 41.3671 46.2372 37.2094C46.2372 37.1589 46.2372 37.1 46.2179 37.0495C45.7348 34.2636 44.8943 31.259 43.3679 29.2138C43.1264 28.8939 47.4641 25.3675 47.0874 21.3023C47.3869 17.3298 44.9909 10.7397 40.0156 6.07696C39.861 5.93389 39.6968 5.79081 39.5229 5.66456C35.8324 2.89555 32.1419 2.63464 27.6013 4.20851C23.5437 5.91705 1.08202 17.6159 0 38.7159C0.0676265 53.6215 12.5206 56.8281 20.0851 57.4509C23.4084 57.7203 26.3937 57.493 29.0214 56.9123C32.1226 56.2221 35.1271 55.1532 37.2719 54.0844C38.6341 53.411 38.9142 55.3216 42.054 55.6751C47.0487 56.887 54.4393 49.7078 58.8157 43.5301C58.8447 43.5049 58.864 43.4796 58.8834 43.4544L59.7915 42.7474C60.4388 47.4943 59.9944 52.4768 59.6273 55.1869C59.5596 55.7003 60.1876 56.0033 60.8252 56.0286C63.0279 56.0791 62.7767 54.2443 62.9313 53.7477L63.3853 52.1738C64.3321 48.9082 68.1772 42.2088 68.3897 41.9899C69.7519 40.5844 70.7373 41.9899 70.8146 44.0604C70.9885 49.0008 73.2588 54.9092 75.7996 55.9528C77.6739 56.0706 78.6593 54.9765 79.4998 53.8319C80.0408 53.0828 80.8523 50.7851 81.5672 49.2786C82.2435 47.8646 82.997 46.2739 83.8955 44.7337L84.6297 43.4628L84.6104 44.7926C84.5911 47.7299 85.6248 50.6841 87.528 53.1333C89.1124 55.1785 91.3924 56.5335 93.6434 56.7524C95.1988 56.9123 96.7542 56.542 98.2806 55.6751C100.928 54.1601 104.705 47.1408 104.705 47.1408C107.12 49.8425 108.318 55.8181 112.434 55.0523C116.385 54.3284 116.965 48.8073 117.902 44.094L118.134 42.9494C118.182 42.6969 118.578 42.6632 118.887 42.8737L119.486 43.4628C119.853 43.7153 120.056 44.0772 120.008 44.3718C119.738 45.8615 119.564 50.4569 123.051 53.5373C123.93 54.1854 124.858 54.4715 125.795 54.3958C127.36 54.2527 128.838 53.1333 129.775 52.2075L130.075 51.9129L130.384 52.1654C133.582 54.8671 137.349 56.0959 140.711 55.532C143.03 55.1532 144.585 54.0423 145.378 52.2327C145.455 52.0644 145.725 52.0307 145.967 52.1822L147.783 53.6635C148.759 54.2779 150.102 54.8923 151.464 54.3705C154.324 53.268 152.314 47.6794 152.643 47.8141C153.048 47.974 153.889 48.984 153.889 48.984C157.058 52.9902 159.599 54.9428 163.018 55.9023C164.555 56.34 165.917 56.3316 167.028 55.8855C168.38 55.3384 169.395 54.1601 169.916 52.4684C170.747 49.8341 171.124 44.6664 169.598 40.6854L169.501 40.4161L169.887 40.3319C173.018 39.6502 174.795 38.354 175.79 36.2499C175.983 35.8375 175.877 35.3999 175.674 35.2568C174.998 34.7518 173.955 35.0632 173.955 35.0632L173.964 35.0884ZM165.492 39.1452C165.212 39.3892 163.907 38.9853 163.907 38.9853C161.927 38.3793 161.309 37.8154 161.106 37.1252C160.999 36.8054 161.183 36.6539 161.357 36.5866C163.018 36.3341 165.772 38.9011 165.492 39.1452ZM35.6102 51.4921C33.3785 53.411 22.6839 56.3063 14.617 53.1165C2.53116 47.0903 5.26521 34.0953 5.70961 32.2437C10.3179 14.4597 25.6015 9.1153 29.6301 7.86967C31.1468 7.40676 33.7939 7.64242 35.2914 9.12372C38.7307 13.0374 42.7303 18.0115 41.2522 25.6789C41.1073 26.066 40.943 26.3269 40.5952 26.47C37.8612 25.5442 36.1029 25.2412 34.5282 25.1823C31.2048 25.0645 29.4368 26.7814 28.6253 29.4158C27.8138 32.0333 28.3452 34.5582 28.8572 37.0158C28.9635 37.5629 29.6204 39.9195 29.6494 40.2225C29.688 40.6096 29.5818 41.1735 29.147 41.527C25.7271 44.2371 22.3167 45.1966 17.5732 44.4728C16.211 44.2287 15.0034 43.9341 14.018 43.1766C12.7621 42.032 8.09586 40.2225 9.30347 43.5049C10.5594 45.6006 12.9843 46.1224 14.4914 46.4254C22.3457 48.1087 29.0891 44.7 30.7121 43.7826C30.8763 43.6901 31.2628 43.8331 31.3884 44.0435L35.7744 50.7346C35.987 51.0797 35.8324 51.2817 35.6005 51.4837L35.6102 51.4921ZM38.6437 31.0149C37.668 32.3952 34.306 36.6792 33.3109 37.9416C33.2239 38.0595 32.8665 37.9248 32.7989 37.7565C32.0067 35.8964 29.717 29.7272 33.2336 27.9008C34.1804 27.5136 35.3976 27.5473 36.9434 27.9934C38.4408 28.4226 39.1847 28.6583 39.3876 29.1212C39.6098 29.5757 39.233 30.148 38.5954 31.0401L38.6244 31.0149H38.6437ZM39.5712 49.2702C39.3876 49.6573 35.5812 42.8063 35.33 42.3771C34.8373 41.5102 34.4799 40.4666 35.0015 39.8269L41.5227 31.4525L41.7545 31.9407C47.1067 42.2761 40.3054 49.2954 39.5808 49.2786L39.5712 49.2702ZM103.208 38.859C103.082 39.2041 102.416 39.0526 102.28 38.6402L101.131 34.9622C100.464 32.8244 99.9809 30.7119 99.7008 28.6246C99.0535 23.8272 98.5415 16.1094 102.068 17.1614C103.797 17.254 105.932 31.1916 103.217 38.8506L103.208 38.859ZM131.852 44.6916H131.833C131.707 45.4743 130.712 48.2097 130.413 48.1676C130.113 48.1255 126.993 42.436 129.002 40.677C129.563 40.172 130.113 39.9868 130.596 40.1046C132.152 40.4918 131.93 44.195 131.852 44.6916Z" fill="white"/>
<path d="M238.535 45.7991C237.965 45.252 236.612 44.1158 236.033 43.7118C235.134 43.0469 234.757 43.19 234.719 43.5182C234.757 43.19 235.134 43.0385 236.033 43.7118C236.612 44.1074 237.965 45.2436 238.535 45.7991C238.583 45.8412 238.602 45.9253 238.602 46.0263C238.602 45.9169 238.583 45.8412 238.535 45.7991Z" fill="white"/>
<path d="M246.539 51.8C244.085 50.6554 242.868 49.8221 241.429 48.6775C241.023 48.3577 240.897 48.829 240.579 49.1067C240.125 49.5023 239.757 50.3524 239.719 50.6554C239.757 50.3524 240.125 49.4939 240.579 49.1067C240.897 48.829 241.023 48.3577 241.429 48.6775C242.868 49.8221 244.095 50.6554 246.539 51.8Z" fill="white"/>
<path d="M243.245 42.7728C243.1 42.4277 242.598 42.3352 242.472 42.6297C242.598 42.3268 243.1 42.4193 243.245 42.7728Z" fill="white"/>
<path d="M241.569 45.7242C241.473 45.5904 241.425 45.4483 241.406 45.3062C241.425 45.4483 241.473 45.5821 241.569 45.7242Z" fill="white"/>
<path d="M223.032 40.2623C220.318 32.4098 216.936 34.8001 216.907 35.7848C216.714 36.6433 216.646 37.4849 216.695 38.3013C216.656 37.4849 216.714 36.6433 216.907 35.7848C216.936 34.8001 220.318 32.4098 223.032 40.2623C223.515 41.6511 223.815 43.5279 223.786 45.1439C223.815 43.5195 223.515 41.6426 223.032 40.2623Z" fill="white"/>
<path d="M313.173 49.5586C313.173 49.5586 313.094 49.4733 313.055 49.4307C313.094 49.4733 313.134 49.516 313.173 49.5586Z" fill="white"/>
<path d="M310.086 45.1281C309.68 44.3286 309.303 43.4533 308.984 42.519C309.303 43.4533 309.68 44.3202 310.086 45.1281Z" fill="white"/>
<path d="M311.132 46.9693C310.949 46.6918 310.775 46.3975 310.602 46.0864C310.775 46.3975 310.959 46.6918 311.132 46.9693Z" fill="white"/>
<path d="M322.847 46.2144C322.364 44.5648 319.746 37.9242 319.33 37.0657C317.91 34.1284 312.258 30.0716 311.176 30.0464C310.036 30.0464 309.003 30.7618 308.51 32.0242C309.003 30.7618 310.027 30.0464 311.176 30.0464C312.249 30.0716 317.91 34.1284 319.33 37.0657C319.746 37.9242 322.364 44.5648 322.847 46.2144C322.885 46.3406 322.905 46.4837 322.914 46.6184C322.914 46.4753 322.885 46.3406 322.847 46.2144Z" fill="white"/>
<path d="M264.903 40.854C264.999 40.5257 265.125 39.8608 265.627 39.8608C266.129 39.8608 266.564 40.955 266.564 40.955C266.564 40.955 268.96 47.9911 269.115 48.5887C269.153 48.7402 269.173 48.858 269.163 48.959C269.163 48.858 269.163 48.7402 269.115 48.5887C268.96 47.9911 266.564 40.955 266.564 40.955C266.564 40.955 266.129 39.8608 265.627 39.8608C265.125 39.8608 264.999 40.5257 264.903 40.854L263.772 44.532C263.714 44.7592 263.656 44.9696 263.656 45.2137C263.656 44.9696 263.714 44.7508 263.772 44.532L264.903 40.854Z" fill="white"/>
<path d="M261.661 52.6644C261.661 52.6644 261.6 52.5949 261.57 52.5688C261.6 52.6036 261.63 52.6383 261.661 52.6644Z" fill="white"/>
<path d="M262.654 47.9035C262.393 47.6426 262.161 47.6847 262.093 47.853C261.9 48.3411 260.953 49.8308 260.528 50.4116C260.451 50.5126 260.422 50.6304 260.422 50.7567C260.422 50.6304 260.461 50.5126 260.528 50.4116C260.953 49.8393 261.9 48.3496 262.093 47.853C262.161 47.6762 262.393 47.6342 262.654 47.9035Z" fill="white"/>
<path d="M378.901 44.7246C378.225 43.3948 377.317 41.9976 376.293 40.6089C376.061 40.2975 375.675 40.1208 375.279 40.1376L374.776 40.1629C374.641 40.1629 374.515 40.1544 374.38 40.1124L373.279 39.7757C372.825 39.6326 372.322 39.7168 371.936 39.9945C371.704 40.1629 371.665 40.4911 371.859 40.7015C372.825 41.7704 373.636 42.7467 374.196 43.5379C379.529 49.8923 367.608 62.9798 352.691 48.9665C350.402 46.3658 350.257 43.8409 349.6 41.2402C349.358 40.2807 348.382 35.7863 348.044 34.5154C347.822 33.7327 346.334 33.2698 345.223 33.3203C344.228 33.3792 344.045 33.7664 343.832 34.507C343.6 35.2729 343.533 36.0472 343.475 36.7795C343.446 37.1245 343.542 39.6579 343.571 40.2049C343.61 41.4842 343.668 42.814 343.629 44.127C343.571 46.2985 343.359 48.4867 343.185 50.3552C343.137 50.6498 343.011 51.0285 342.75 51.3652L342.731 51.3904C342.335 51.9291 341.581 51.6513 340.924 51.1463C339.852 50.3215 338.866 48.3521 338.644 47.9144C337.755 46.2395 336.944 43.0834 336.818 41.2402C336.702 39.5316 336.693 37.7978 336.683 36.1146C336.683 35.4833 336.683 34.8521 336.664 34.2377C336.644 32.9752 336.297 32.7396 335.543 32.7227C334.973 32.6975 334.558 32.7816 334.278 32.9668C333.959 33.1772 333.775 33.5644 333.708 34.1114C333.543 35.6853 333.524 38.9677 333.611 41.9303C333.688 43.1928 332.432 49.4967 332.432 49.4967C332.374 49.9007 332.027 51.0032 331.312 50.6834C331.031 50.6834 330.317 49.5051 330.104 48.7308C327.669 42.4101 325.805 35.6601 325.554 35.1298C324.984 33.8842 324.365 32.5965 323.718 31.3677C323.409 30.7954 322.684 29.8864 321.293 30.2735C321.052 30.3409 320.375 30.93 319.834 31.435C319.429 31.8137 318.685 31.7212 318.221 31.2246L318.086 31.0899C318.086 31.0899 318.047 31.0479 318.028 31.031C316.849 29.9285 315.709 28.8932 313.922 28.3378C311.71 27.6476 308.657 28.2452 307.285 29.6507C306.019 30.9384 305.179 32.4786 304.696 34.4902C304.184 36.5775 305.102 41.2654 306.667 45.3726C306.744 45.541 307.188 46.4247 307.623 47.2916C308.077 48.1837 307.246 48.9328 306.299 48.4951C306.261 48.4783 305.865 48.3184 305.401 48.1332C304.135 47.6282 302.947 46.8539 302.02 45.844C299.856 43.4874 299.16 41.3327 298.339 39.4222C298.001 38.6311 296.812 35.2729 296.368 34.1114C296.107 33.4297 294.281 32.4955 293.267 32.4618C292.678 32.4366 291.808 33.9515 291.441 34.507C291.354 34.6417 291.132 34.6164 291.006 34.4733C290.446 33.8253 289.972 32.6975 289.345 32.344C288.137 31.6538 286.717 31.8811 286.079 31.94C285.161 32.0326 285.577 32.4702 284.437 34.1199L283.751 35.2982C283.606 35.5507 283.171 35.4497 283.046 35.1382C282.669 34.1872 282.07 32.6975 281.877 32.445C281.229 31.6118 280.06 32.4366 279.587 32.5376C278.602 32.8321 277.925 33.051 277.887 33.5475C277.732 34.2461 278.408 45.8271 273.24 50.3131C273.095 50.4393 272.718 49.3031 272.467 48.4783C270.882 43.3359 267.791 35.8452 267.569 35.0036C266.294 30.383 265.704 26.1242 265.125 25.7455C263.956 25.0133 262.671 25.7792 261.202 26.9995C260.874 28.0095 262.101 28.8427 262.555 30.4755C263.376 34.1619 263.801 38.6058 261.376 43.9671C261.337 44.0513 261.241 44.1102 261.135 44.0849C260.053 43.7651 257.647 40.7183 257.183 40.3649C256.468 39.742 256.082 39.6915 255.454 39.8683C255.261 39.9272 254.507 40.247 254.778 41.4842C255.039 42.6625 255.831 47.4094 256.623 49.421C256.971 50.0438 256.063 50.2205 255.473 50.3131C253.85 50.6161 253.068 50.6918 251.483 50.3299C249.87 49.9596 249.3 48.512 248.971 47.5525C248.063 44.8087 245.204 37.8399 244.875 35.6432C244.643 34.0946 244.75 32.4618 244.837 30.8879C244.866 30.3409 244.904 29.7854 244.924 29.2467C244.943 28.6155 244.788 27.5634 243.523 27.5634C243.117 27.5634 242.808 27.6392 242.576 27.7991C242.228 28.0432 241.146 28.2368 241.098 28.9101C241.03 29.8191 241.581 30.9132 241.542 31.8306C241.494 32.8995 239.001 43.8072 238.673 43.622C237.388 42.8814 234.809 39.7505 233.05 40.4322C232.538 40.6679 231.253 41.3496 232.645 44.8172C233.108 46.0207 233.727 47.199 234.335 48.3436C234.548 48.7476 234.76 49.1432 234.963 49.5472L235.05 49.7071C235.321 50.2121 234.712 51.7776 233.369 52.0553C229.833 52.7959 227.486 52.0974 225.099 51.1716C223.699 50.3383 228.548 49.5472 224.8 39.0182C223.447 35.2308 220.762 32.5881 217.999 32.2093C216.202 31.9737 215.178 32.2346 214.279 33.3203C210.337 39.9272 216.569 47.7377 218.994 49.9849C219.409 50.372 217.979 51.0537 217.506 51.2052C215.564 51.8365 212.985 52.4004 206.396 49.9428C204.947 49.4715 204.068 49.16 204.27 48.3521C204.27 48.3521 208.811 31.8222 210.038 29.6423C210.115 29.5076 210.241 29.4066 210.386 29.3477C234.944 19.9466 223.979 5.78169 220.887 2.58344C220.868 2.56661 220.858 2.55819 220.839 2.54136C218.52 0.420412 213.439 -2.03719 211.246 2.80227C209.342 5.72277 206.338 23.7845 205.323 27.8159C205.207 28.6492 202.145 29.2804 201.266 29.474C196.165 30.5934 194.204 30.9974 189.422 29.5413C187.934 29.0952 181.297 25.3415 179.732 24.8786C179.616 24.8618 179.5 24.8534 179.384 24.8365C178.147 24.8786 177.326 25.5014 177.181 26.7386C176.988 27.4877 176.92 27.9338 177.867 28.1526C179.307 28.5145 180.833 28.9774 182.388 29.5245C183.258 29.8359 187.895 31.7212 189.47 32.1252C192.445 32.8826 195.885 32.9752 199.701 32.3777C200.058 32.3187 202.976 31.5108 203.411 31.4182C204.261 31.233 203.179 33.4718 202.928 34.2545C202.039 36.9814 200.522 41.8293 200.097 44.2364C199.991 44.8256 199.169 44.4721 198.493 43.9334C196.522 42.3596 195.46 41.055 193.73 39.1024C192.658 37.8904 189.412 35.3655 188.504 34.7006C185.982 33.1772 185.364 33.8337 184.9 33.9684C182.07 35.6769 182.804 50.1111 193.006 56.9368C194.832 58.1741 196.233 59.3271 198.087 58.8979C201.024 58.5444 202.812 53.5871 203.469 51.786C203.594 51.4325 204.135 51.2978 204.695 51.4746C206.135 51.9206 208.714 52.737 209.603 53.0148C213.632 54.252 216.81 54.2267 219.892 52.8801C220.53 52.6024 221.09 52.9643 223.901 54.0752C230.171 55.565 233.91 54.7401 235.862 53.2504C237.108 52.3078 237.852 52.6529 238.683 53.1999C240.509 54.4035 248.923 61.2629 251.165 54.8243C251.512 53.9237 251.445 52.9138 251.706 52.9643C255.019 53.6208 258.062 52.0216 258.198 52.131C259.241 53.9742 262.99 55.8595 264.757 56.4739C266.854 57.1809 271.066 57.8374 273.172 55.0852C274.1 53.9658 273.597 53.2925 273.964 53.1494C274.476 52.838 275.771 52.0805 276.399 51.2305C280.254 45.5915 279.761 39.7168 280.225 39.5232C280.524 39.397 282.079 50.3804 282.901 54.0584C283.017 54.959 284.678 54.9337 285.876 55.3377C286.862 55.1694 287.364 54.7486 287.335 54.3446C287.248 53.2757 286.63 51.584 286.504 50.5151C286.292 48.7308 285.615 45.4484 285.567 43.6052C285.229 38.6647 286.253 37.4107 286.668 36.8131C287.267 35.9462 288.147 36.0136 288.688 36.8636C288.871 37.1498 289.016 37.4023 289.084 37.5538C289.76 39.2202 292.166 50.9612 292.494 52.089C292.649 52.6192 294.31 52.7623 294.9 52.8128C295.431 52.8464 295.885 53.0232 296.136 52.7454C296.474 52.3415 296.639 51.7439 296.513 51.1884C296.329 50.3804 294.204 42.1828 294.02 41.0803C293.972 40.7941 293.499 38.4712 293.45 37.4528C293.412 36.7626 294.223 36.0136 294.871 37.2339C296.455 40.1965 297.479 44.9182 301.817 48.6887C303.855 50.271 305.343 51.3483 307.894 52.4256C309.372 53.0484 313.246 53.9406 314.395 54.3951C317.062 55.4555 319.506 55.3377 322.337 54.252C322.916 54.0332 323.477 53.7638 323.96 53.4188C325.177 52.535 325.766 51.5671 326.24 51.6176C326.858 51.6934 327.032 53.6376 329.437 55.4387C330.181 55.9858 331.186 56.2299 332.2 56.0952C333.138 55.9689 333.949 55.5481 334.49 54.8916C334.848 54.4624 335.833 51.8196 336.229 50.7508C336.306 50.5488 336.596 50.5403 336.77 50.7339L338.528 52.6781C339.726 54.0752 342.055 54.5382 343.716 53.7049C344.982 53.0737 345.339 52.0469 345.533 51.1295C345.735 50.1195 345.996 45.2801 346.354 45.4821L347.484 46.9381C351.658 52.4425 356.575 54.9253 359.464 55.8511C368.796 59.285 376.071 56.0194 377.587 53.8648C379.191 51.584 380.988 48.8318 378.901 44.7414V44.7246ZM210.994 23.9275L211.729 19.7362C211.883 18.6673 213.41 10.3518 214.598 6.57283C214.955 5.4282 215.69 3.26517 217.274 4.20781C220.153 5.92477 222.046 8.89577 222.211 12.4138C222.336 15.1492 221.419 18.2044 219.09 21.2679C217.873 23.027 213.477 24.8786 210.985 26.2841C210.849 26.3599 210.772 26.2841 210.734 26.099C210.714 26.0232 210.714 25.9222 210.714 25.8128C210.714 25.2153 210.907 24.2642 210.985 23.936L210.994 23.9275ZM198.464 48.0575C198.464 48.0575 197.189 51.9711 196.261 53.848C196.01 54.3614 193.682 53.8396 192.899 53.4693C186.794 50.5908 186.031 44.0597 186.031 40.9708C186.031 39.944 186.117 39.296 186.117 39.296C186.011 38.2187 187.499 37.781 188.716 38.5806C191.788 40.5921 194.783 43.8661 196.542 45.3306C197.913 46.7866 198.619 47.2243 198.541 47.7966C198.532 47.8807 198.503 47.9649 198.464 48.0575ZM223.013 48.108C222.81 48.3436 222.713 48.7561 222.317 48.4615C222.317 48.4615 216.965 44.026 216.675 38.3112C216.636 37.4949 216.694 36.6532 216.888 35.7947C216.917 34.81 220.298 32.4197 223.013 40.2723C223.496 41.661 223.795 43.5379 223.766 45.1538C223.737 46.4163 223.515 47.5188 223.013 48.1164V48.108ZM237.253 48.512C236.702 48.1164 234.76 44.1018 234.693 43.6809C234.693 43.6304 234.683 43.5799 234.693 43.5294C234.731 43.2012 235.108 43.0497 236.007 43.723C236.586 44.1186 237.939 45.2548 238.509 45.8103C238.557 45.8524 238.576 45.9365 238.576 46.0375C238.576 46.7782 237.62 48.7813 237.253 48.5204V48.512ZM242.441 42.6289C242.566 42.3259 243.069 42.4185 243.214 42.772L244.943 46.896C244.962 46.9381 244.972 46.9886 244.972 47.0307C244.972 47.3421 244.595 47.5946 244.276 47.4263L242.75 46.694C242.122 46.3069 241.755 46.0123 241.562 45.7177C241.465 45.5831 241.417 45.44 241.397 45.2969C241.397 45.2885 241.397 45.2716 241.397 45.2632C241.349 44.6825 241.861 43.9839 242.46 42.612L242.441 42.6289ZM246.17 53.1663C245.948 53.6628 245.407 53.9322 244.788 53.8817C244.315 53.8396 243.494 53.545 243.31 53.4524C242.18 52.8801 241.446 52.4425 240.489 51.786C239.881 51.3736 239.726 51.1968 239.716 50.8265C239.716 50.776 239.716 50.7171 239.716 50.6582C239.755 50.3552 240.122 49.4967 240.576 49.1095C240.895 48.8318 241.021 48.3605 241.426 48.6803C242.866 49.8249 244.093 50.6582 246.537 51.8028C246.537 51.8281 246.537 51.8617 246.537 51.9038C246.518 52.19 246.295 52.8464 246.151 53.1663H246.17ZM263.772 44.5226L264.902 40.8446C264.999 40.5164 265.125 39.8515 265.627 39.8515C266.129 39.8515 266.564 40.9456 266.564 40.9456C266.564 40.9456 268.96 47.9817 269.115 48.5793C269.153 48.7308 269.173 48.8486 269.163 48.9496C269.144 49.2442 268.912 49.3115 268.487 49.219C267.917 49.0927 264.902 48.0743 264.207 46.7866C263.762 46.088 263.637 45.6167 263.646 45.2127C263.646 44.9687 263.704 44.7498 263.762 44.531L263.772 44.5226ZM259.608 48.3016C259.318 48.6719 259.077 49.1348 258.835 48.9496C258.594 48.7645 258.449 48.1164 258.159 47.1401C257.869 46.1638 257.338 43.8072 257.338 43.8072C257.338 43.8072 257.222 43.4284 257.502 43.521C257.792 43.6136 258.343 44.4132 259.164 45.0107C259.985 45.6167 260.661 46.0207 260.661 46.2227C260.661 46.4247 260.284 47.1485 260.284 47.1485C260.284 47.1485 259.888 47.9228 259.599 48.2931L259.608 48.3016ZM268.593 53.3009C268.342 53.6208 268.023 53.9911 267.791 54.1426C267.028 54.6139 265.975 54.656 264.97 54.353C263.308 53.8648 262.342 53.3598 261.627 52.6613C261.598 52.636 261.569 52.594 261.54 52.5687C261.154 52.1647 260.825 51.7102 260.497 51.1463C260.42 51.0201 260.391 50.8854 260.391 50.7592C260.391 50.6329 260.429 50.5151 260.497 50.4141C260.922 49.8418 261.869 48.3521 262.062 47.8555C262.13 47.6787 262.362 47.6367 262.622 47.906C262.622 47.906 266.023 51.5419 268.767 51.8196C269.153 51.8617 269.259 52.0385 269.221 52.2657C269.163 52.636 268.728 53.1326 268.593 53.3009ZM321.535 49.6398C320.897 50.372 317.922 53.5787 313.622 49.9933C313.468 49.867 313.313 49.7239 313.139 49.5556C313.101 49.5135 313.062 49.4715 313.023 49.4294C312.424 48.8234 311.758 47.9902 311.111 46.9718C310.927 46.694 310.753 46.3994 310.579 46.088C310.405 45.785 310.231 45.4652 310.067 45.1286C309.661 44.329 309.285 43.4537 308.966 42.5195C308.889 42.2922 308.811 42.0566 308.744 41.8209C307.874 38.9425 307.546 35.5675 308.492 32.0242C308.985 30.7617 310.009 30.0463 311.159 30.0463C312.231 30.0715 317.893 34.1283 319.313 37.0656C319.728 37.9241 322.346 44.5647 322.829 46.2143C322.868 46.3405 322.887 46.4836 322.897 46.6183C322.936 47.603 322.269 48.8066 321.554 49.6314L321.535 49.6398Z" fill="white"/>
<path d="M244.293 47.4356L242.766 46.7034C242.138 46.3162 241.771 46.0216 241.578 45.7271C241.771 46.0132 242.148 46.3162 242.766 46.7034L244.293 47.4356C244.612 47.5955 244.998 47.343 244.988 47.04C244.988 47.3514 244.612 47.6039 244.293 47.4356Z" fill="white"/>
<path d="M237.283 48.5099C236.733 48.1143 234.791 44.0997 234.723 43.6788C234.723 43.6283 234.713 43.5778 234.723 43.5273C234.723 43.5778 234.723 43.6283 234.723 43.6788C234.791 44.0997 236.733 48.1143 237.283 48.5099C237.65 48.7708 238.616 46.7677 238.607 46.027C238.607 46.7677 237.65 48.7708 237.283 48.5099Z" fill="white"/>
<path d="M196.262 53.8474C196.011 54.3608 193.683 53.839 192.9 53.4686C193.673 53.8305 196.001 54.3608 196.262 53.8474Z" fill="white"/>
<path d="M222.322 48.4608C222.718 48.7554 222.824 48.3429 223.017 48.1073C222.814 48.3429 222.718 48.7554 222.322 48.4608Z" fill="white"/>
<path d="M244.791 53.8794C244.317 53.8373 243.496 53.5427 243.313 53.4501C242.173 52.8778 241.448 52.4402 240.492 51.7837C239.883 51.3713 239.728 51.1945 239.719 50.8242C239.719 51.1945 239.873 51.3713 240.492 51.7837C241.448 52.4402 242.182 52.8778 243.313 53.4501C243.496 53.5427 244.317 53.8373 244.791 53.8794C245.409 53.9299 245.95 53.6521 246.172 53.164C246.317 52.8526 246.539 52.1961 246.559 51.9015C246.539 52.1877 246.317 52.8442 246.172 53.164C245.95 53.6606 245.409 53.9299 244.791 53.8794Z" fill="white"/>
<path d="M321.559 49.6491C320.922 50.3729 317.946 53.5711 313.647 49.9941C313.493 49.8679 313.338 49.7248 313.164 49.5565C313.328 49.7164 313.493 49.8679 313.647 49.9941C317.946 53.5711 320.922 50.3729 321.559 49.6491C322.284 48.8158 322.951 47.6039 322.902 46.6191C322.941 47.6039 322.274 48.8074 321.559 49.6322V49.6491Z" fill="white"/>
<path d="M310.59 46.0865C310.416 45.7838 310.242 45.4643 310.078 45.1279C310.242 45.4559 310.416 45.7754 310.59 46.0865Z" fill="white"/>
<path d="M313.053 49.4268C312.455 48.8209 311.788 47.9876 311.141 46.9692C311.798 47.9876 312.464 48.8209 313.053 49.4268Z" fill="white"/>
<path d="M264.217 46.7848C263.773 46.0862 263.647 45.6149 263.657 45.2109C263.657 45.6149 263.773 46.0947 264.217 46.7848Z" fill="white"/>
<path d="M267.828 54.1415C267.065 54.6128 266.011 54.6549 265.007 54.3519C266.011 54.6465 267.065 54.6128 267.828 54.1415C268.06 53.9984 268.378 53.6197 268.63 53.2999C268.378 53.6197 268.06 53.99 267.828 54.1415Z" fill="white"/>
<path d="M260.422 50.7598C260.422 50.886 260.461 51.0207 260.528 51.1469C260.857 51.7024 261.175 52.1653 261.572 52.5693C261.185 52.1653 260.857 51.7108 260.528 51.1469C260.451 51.0207 260.422 50.886 260.422 50.7598Z" fill="white"/>
</svg>
