<svg width="306" height="48" viewBox="0 0 306 48" fill="none" xmlns="http://www.w3.org/2000/svg">
<path d="M208.703 36.6163C208.042 36.1233 207.598 35.4797 207.365 35.4044C207.132 35.3291 207.233 35.6372 207.233 35.6372C207.233 35.6372 207.661 37.5611 207.894 38.3485C208.127 39.1427 208.244 39.6699 208.438 39.8205C208.633 39.9711 208.827 39.5946 209.061 39.2933C209.294 38.9921 209.613 38.3622 209.613 38.3622C209.613 38.3622 209.916 37.7802 209.916 37.6091C209.916 37.4379 209.372 37.1092 208.711 36.6231L208.703 36.6163Z" fill="#009296"/>
<path d="M140.066 28.5439C139.84 28.5918 139.568 28.7904 139.412 29.1053C138.712 30.2419 138.012 30.9471 136.425 31.3852C136.425 31.3852 135.974 31.5222 135.819 31.4811C135.663 31.44 135.445 30.9881 135.445 30.9881C133.82 28.2974 131.463 27.4964 128.32 27.9962C127.83 28.0989 127.27 28.4138 127.262 28.9615C127.154 31.9877 130.055 33.2407 133.361 33.2749L133.462 33.5214C134.66 36.1505 133.687 41.8401 133.166 42.5658C132.552 43.4285 132.474 43.764 131.191 43.4079C127.838 42.2577 123.871 36.9858 122.44 34.7469C122.152 34.2814 121.553 34.4046 121.382 34.4525C120.907 34.5826 120.472 34.925 120.55 35.3563C120.581 35.5138 120.635 35.7329 120.69 35.9999C121.055 37.5267 122.098 42.6206 120.114 41.0596C118.442 39.4711 117.003 34.4388 116.124 33.316C114.405 33.0558 114.094 32.1521 113.627 32.3164C113.448 32.378 112.88 32.6176 113.075 33.1106C113.285 33.6652 118.076 42.3946 112.561 43.0588C110.819 43.3669 107.793 41.4977 106.619 40.6487C106.362 40.4639 106.261 40.19 106.377 40.0189C108.384 37.068 108.711 34.8839 107.645 32.5697C107.217 31.6386 106.245 30.6321 105.016 30.4952C104.285 30.4199 103.554 30.6595 102.83 31.2072C99.548 33.6994 100.909 38.3004 103.725 41.2444C103.935 41.4635 102.994 41.8195 102.722 41.9222C102.037 42.1687 101.454 42.1824 100.956 41.9838C99.3846 41.354 99.9602 38.8275 99.9213 36.8557C99.9213 36.3354 99.828 35.6986 99.7813 35.4248C99.5324 33.8363 96.5688 32.9737 95.9388 31.8097C95.6743 31.3168 95.4332 30.9402 95.1376 30.3377C94.9509 29.9406 93.3875 29.4956 92.8663 29.5846C92.6174 29.6325 92.2129 29.7763 92.2207 30.2282C92.2674 32.8299 93.8775 41.6073 90.525 42.9424C89.2727 43.4422 87.0403 39.7313 86.0525 37.1707C85.8113 36.5408 85.4146 35.9109 85.6402 35.4042C88.7049 28.4617 88.7593 20.3553 86.4492 15.6037C84.7846 11.9545 83.6178 11.7902 81.9066 11.3451C81.1598 11.1534 80.4053 11.1945 79.5964 11.4821C76.345 12.646 76.4617 24.3195 81.5954 34.7333C81.6499 34.8223 82.1788 36.2258 81.9999 36.7872C81.7821 37.4719 79.6508 42.3193 78.0874 42.9013C77.2551 43.4696 72.4558 43.5928 71.7869 35.8287C71.3046 32.4396 74.8438 31.1388 76.4617 31.7824C77.0295 32.0083 77.3873 33.0764 77.6751 32.7614C77.8385 32.5766 78.7019 31.5564 78.6707 31.0292C78.6474 30.68 78.0796 30.3377 77.8618 30.2487C75.2249 29.119 72.977 29.5298 70.5423 30.8238C68.3644 32.1795 66.3809 34.5552 64.6385 37.8896C64.5452 38.0744 63.0595 42.7986 62.4917 42.4357C61.4883 42.1208 60.6015 37.6773 60.8271 34.9318C60.796 33.316 61.4571 32.6176 60.8427 31.3373C60.6715 30.9744 60.726 31.0977 60.4226 30.7417C60.2748 30.5637 59.1236 29.8311 57.8713 29.7968C57.3346 29.7831 56.1601 28.7082 55.6233 28.9889C53.4143 30.1597 52.5431 33.8569 51.4697 35.9451C51.3763 36.1368 50.9952 36.1163 50.9874 35.9177C50.9719 34.2403 50.8941 32.6245 50.5441 31.5564C49.9062 30.2419 47.7283 30.0502 47.2227 31.0292C46.7404 32.2137 41.7622 39.567 37.9975 41.7442C37.9664 41.7648 37.943 41.7784 37.9041 41.7921C37.6008 41.9291 35.9751 42.6343 34.1083 42.3673C33.7038 42.2783 33.2682 42.155 33.1438 41.8675C33.0038 41.573 33.2371 41.2307 33.4705 40.9295C33.8905 40.4091 34.3105 39.8272 34.7695 39.1493C37.0641 35.7671 37.4219 33.6515 37.2274 30.2692C37.2274 30.2282 37.2274 30.1802 37.2119 30.1392C36.823 27.8729 36.1462 25.4287 34.9172 23.7649C34.7228 23.5048 38.2153 20.636 37.9119 17.3291C38.1531 14.0975 36.224 8.73656 32.2181 4.94353C32.0937 4.82713 31.9615 4.71074 31.8214 4.60804C28.8501 2.3555 25.8787 2.14325 22.2229 3.42357C18.956 4.81344 0.871181 14.3303 0 31.4948C0.0544488 43.6202 10.0808 46.2288 16.1713 46.7354C18.8471 46.9545 21.2506 46.7696 23.3663 46.2972C25.8632 45.7358 28.2823 44.8663 30.0091 43.9968C31.1058 43.449 31.3314 45.0032 33.8594 45.2908C37.8808 46.2767 43.8313 40.4365 47.3549 35.4111C47.3782 35.3905 47.3938 35.37 47.4094 35.3495L48.1405 34.7743C48.6617 38.6358 48.3039 42.689 48.0083 44.8937C47.9538 45.3113 48.4594 45.5578 48.9728 45.5783C50.7463 45.6194 50.5441 44.1268 50.6685 43.7229L51.0341 42.4426C51.7964 39.7861 54.8922 34.3361 55.0633 34.1581C56.1601 33.0147 56.9535 34.1581 57.0157 35.8424C57.1557 39.8614 58.9836 44.6677 61.0293 45.5167C62.5383 45.6126 63.3317 44.7225 64.0085 43.7914C64.4441 43.182 65.0974 41.3129 65.673 40.0873C66.2175 38.9371 66.8242 37.6431 67.5476 36.3901L68.1388 35.3563L68.1232 36.4381C68.1077 38.8275 68.94 41.2307 70.4723 43.2231C71.748 44.8868 73.5837 45.9891 75.396 46.1671C76.6484 46.2972 77.9007 45.996 79.1297 45.2908C81.261 44.0584 84.3023 38.3483 84.3023 38.3483C86.2469 40.546 87.2114 45.4072 90.525 44.7841C93.7064 44.1953 94.1731 39.7039 94.9276 35.8698L95.1143 34.9387C95.1532 34.7332 95.4721 34.7059 95.721 34.877L96.2033 35.3563C96.4988 35.5617 96.6622 35.8561 96.6233 36.0957C96.4055 37.3076 96.2655 41.0459 99.0735 43.5517C99.7813 44.0789 100.528 44.3117 101.283 44.2501C102.543 44.1337 103.733 43.2231 104.487 42.47L104.728 42.2303L104.977 42.4357C107.552 44.6335 110.586 45.6331 113.292 45.1744C115.159 44.8663 116.412 43.9625 117.049 42.4905C117.112 42.3536 117.329 42.3262 117.524 42.4494L118.986 43.6544C119.772 44.1542 120.853 44.654 121.95 44.2295C124.252 43.3326 122.634 38.7865 122.899 38.896C123.225 39.0261 123.902 39.8477 123.902 39.8477C126.453 43.1067 128.499 44.6951 131.253 45.4756C132.49 45.8317 133.586 45.8248 134.481 45.4619C135.57 45.0169 136.386 44.0584 136.807 42.6822C137.475 40.5392 137.779 36.3354 136.55 33.0969L136.472 32.8778L136.783 32.8093C139.303 32.2548 140.735 31.2004 141.536 29.4887C141.691 29.1532 141.606 28.7972 141.442 28.6808C140.898 28.27 140.058 28.5233 140.058 28.5233L140.066 28.5439ZM133.244 31.844C133.018 32.0425 131.968 31.7139 131.968 31.7139C130.374 31.2209 129.876 30.7622 129.713 30.2008C129.627 29.9406 129.775 29.8174 129.915 29.7626C131.253 29.5572 133.47 31.6454 133.244 31.844ZM28.6712 41.888C26.8744 43.449 18.2637 45.8043 11.7687 43.2094C2.03794 38.3072 4.23923 27.736 4.59703 26.2297C8.30733 11.7628 20.6128 7.41516 23.8564 6.40186C25.0776 6.0253 27.2088 6.217 28.4145 7.42201C31.1836 10.6057 34.4039 14.6521 33.2138 20.8893C33.0971 21.2043 32.9649 21.4165 32.6848 21.5329C30.4836 20.7798 29.0679 20.5333 27.8 20.4854C25.1242 20.3895 23.7008 21.7863 23.0474 23.9293C22.394 26.0586 22.8218 28.1126 23.2341 30.1118C23.3196 30.5568 23.8486 32.4739 23.8719 32.7203C23.903 33.0353 23.8175 33.494 23.4674 33.7816C20.7139 35.9862 17.9681 36.7667 14.1489 36.1779C13.0522 35.9793 12.0799 35.7397 11.2865 35.1235C10.2753 34.1924 6.5183 32.7203 7.4906 35.3905C8.50179 37.0953 10.4542 37.5198 11.6676 37.7663C17.9914 39.1356 23.4208 36.3628 24.7275 35.6165C24.8598 35.5412 25.1709 35.6576 25.272 35.8287L28.8034 41.2718C28.9745 41.5525 28.8501 41.7168 28.6634 41.8811L28.6712 41.888ZM31.1136 25.2301C30.328 26.353 27.6211 29.8379 26.8199 30.8649C26.7499 30.9608 26.4621 30.8512 26.4077 30.7143C25.7698 29.2012 23.9264 24.1826 26.7577 22.6969C27.52 22.3819 28.5001 22.4093 29.7446 22.7722C30.9503 23.1213 31.5492 23.3131 31.7125 23.6896C31.8914 24.0593 31.5881 24.5249 31.0747 25.2507L31.098 25.2301H31.1136ZM31.8603 40.0805C31.7125 40.3954 28.6479 34.8223 28.4456 34.4731C28.0489 33.7679 27.7611 32.9189 28.1811 32.3985L33.4316 25.5861L33.6182 25.9832C37.9275 34.3909 32.4515 40.101 31.8681 40.0873L31.8603 40.0805ZM83.0967 31.6112C82.9955 31.8919 82.4588 31.7687 82.3499 31.4332L81.4243 28.4412C80.8876 26.7021 80.4987 24.9836 80.2731 23.2857C79.7519 19.3831 79.3397 13.1047 82.1788 13.9605C83.5711 14.0359 85.2902 25.3739 83.1044 31.6043L83.0967 31.6112ZM106.16 36.3559H106.144C106.043 36.9926 105.242 39.2178 105.001 39.1836C104.76 39.1493 102.247 34.521 103.865 33.0901C104.316 32.6793 104.76 32.5286 105.148 32.6245C106.401 32.9394 106.222 35.952 106.16 36.3559Z" fill="#009296"/>
<path d="M192.049 37.2567C191.59 36.8117 190.501 35.8874 190.034 35.5587C189.311 35.0178 189.008 35.1342 188.977 35.4012C189.008 35.1342 189.311 35.011 190.034 35.5587C190.501 35.8805 191.59 36.8048 192.049 37.2567C192.088 37.2909 192.103 37.3594 192.103 37.4415C192.103 37.3525 192.088 37.2909 192.049 37.2567Z" fill="#009296"/>
<path d="M198.499 42.139C196.524 41.2079 195.544 40.5301 194.385 39.5989C194.058 39.3387 193.957 39.7222 193.7 39.9481C193.335 40.2699 193.039 40.9614 193.008 41.2079C193.039 40.9614 193.335 40.263 193.7 39.9481C193.957 39.7222 194.058 39.3387 194.385 39.5989C195.544 40.5301 196.531 41.2079 198.499 42.139Z" fill="#009296"/>
<path d="M195.848 34.7946C195.731 34.5139 195.326 34.4386 195.225 34.6782C195.326 34.4317 195.731 34.5071 195.848 34.7946Z" fill="#009296"/>
<path d="M194.499 37.1959C194.421 37.087 194.383 36.9712 194.367 36.8555C194.383 36.9712 194.421 37.0801 194.499 37.1959Z" fill="#009296"/>
<path d="M179.576 32.7527C177.39 26.3648 174.667 28.3092 174.644 29.1103C174.489 29.8086 174.434 30.4933 174.473 31.1574C174.442 30.4933 174.489 29.8086 174.644 29.1103C174.667 28.3092 177.39 26.3648 179.576 32.7527C179.965 33.8824 180.206 35.4092 180.182 36.7237C180.206 35.4023 179.965 33.8755 179.576 32.7527Z" fill="#009296"/>
<path d="M252.151 40.3154C252.151 40.3154 252.087 40.2458 252.055 40.2109C252.087 40.2458 252.119 40.2806 252.151 40.3154Z" fill="#009296"/>
<path d="M249.66 36.7113C249.333 36.0609 249.03 35.3488 248.773 34.5889C249.03 35.3488 249.333 36.054 249.66 36.7113Z" fill="#009296"/>
<path d="M250.506 38.2096C250.358 37.9837 250.218 37.744 250.078 37.4907C250.218 37.744 250.366 37.9837 250.506 38.2096Z" fill="#009296"/>
<path d="M259.934 37.5948C259.545 36.2528 257.437 30.8508 257.102 30.1525C255.959 27.763 251.409 24.4629 250.537 24.4424C249.62 24.4424 248.787 25.0243 248.391 26.0513C248.787 25.0243 249.612 24.4424 250.537 24.4424C251.401 24.4629 255.959 27.763 257.102 30.1525C257.437 30.8508 259.545 36.2528 259.934 37.5948C259.965 37.6975 259.98 37.8139 259.988 37.9234C259.988 37.807 259.965 37.6975 259.934 37.5948Z" fill="#009296"/>
<path d="M213.292 33.2342C213.37 32.9672 213.471 32.4263 213.876 32.4263C214.28 32.4263 214.63 33.3163 214.63 33.3163C214.63 33.3163 216.559 39.0401 216.684 39.5262C216.715 39.6495 216.731 39.7453 216.723 39.8275C216.723 39.7453 216.723 39.6495 216.684 39.5262C216.559 39.0401 214.63 33.3163 214.63 33.3163C214.63 33.3163 214.28 32.4263 213.876 32.4263C213.471 32.4263 213.37 32.9672 213.292 33.2342L212.382 36.2262C212.336 36.411 212.289 36.5822 212.289 36.7807C212.289 36.5822 212.336 36.4042 212.382 36.2262L213.292 33.2342Z" fill="#009296"/>
<path d="M210.668 42.8418C210.668 42.8418 210.618 42.785 210.594 42.7637C210.618 42.7921 210.643 42.8205 210.668 42.8418Z" fill="#009296"/>
<path d="M211.469 38.9691C211.259 38.7569 211.072 38.7911 211.018 38.928C210.862 39.3252 210.1 40.537 209.757 41.0094C209.695 41.0916 209.672 41.1874 209.672 41.2901C209.672 41.1874 209.703 41.0916 209.757 41.0094C210.1 40.5439 210.862 39.332 211.018 38.928C211.072 38.7843 211.259 38.75 211.469 38.9691Z" fill="#009296"/>
<path d="M305.071 36.3827C304.527 35.3009 303.795 34.1644 302.971 33.0347C302.784 32.7814 302.473 32.6376 302.154 32.6513L301.75 32.6718C301.641 32.6718 301.54 32.665 301.431 32.6307L300.544 32.3569C300.178 32.2405 299.774 32.309 299.463 32.5349C299.276 32.6718 299.245 32.9389 299.401 33.11C300.178 33.9795 300.832 34.7737 301.283 35.4173C305.577 40.5865 295.978 51.2331 283.968 39.8334C282.125 37.7178 282.008 35.6638 281.479 33.5482C281.285 32.7677 280.499 29.1116 280.227 28.0777C280.048 27.441 278.85 27.0644 277.956 27.1055C277.154 27.1534 277.007 27.4684 276.835 28.0709C276.649 28.6939 276.594 29.3238 276.548 29.9195C276.524 30.2002 276.602 32.261 276.625 32.7061C276.657 33.7468 276.703 34.8285 276.672 35.8966C276.625 37.663 276.454 39.4432 276.314 40.9631C276.275 41.2027 276.174 41.5108 275.964 41.7847L275.949 41.8052C275.63 42.2434 275.023 42.0175 274.494 41.6067C273.631 40.9357 272.837 39.3336 272.658 38.9776C271.943 37.6151 271.289 35.0476 271.188 33.5482C271.095 32.1583 271.087 30.7479 271.079 29.3786C271.079 28.8651 271.079 28.3516 271.064 27.8518C271.048 26.8248 270.768 26.6331 270.162 26.6194C269.703 26.5989 269.368 26.6673 269.143 26.818C268.886 26.9891 268.738 27.3041 268.684 27.7491C268.551 29.0294 268.536 31.6996 268.606 34.1096C268.668 35.1366 267.657 40.2648 267.657 40.2648C267.61 40.5934 267.33 41.4903 266.755 41.2301C266.529 41.2301 265.953 40.2716 265.782 39.6417C263.822 34.4999 262.321 29.0089 262.119 28.5775C261.66 27.5642 261.162 26.5167 260.641 25.5171C260.392 25.0515 259.809 24.3121 258.688 24.627C258.494 24.6818 257.95 25.1611 257.514 25.5719C257.187 25.88 256.588 25.8046 256.215 25.4007L256.106 25.2912C256.106 25.2912 256.075 25.2569 256.059 25.2432C255.11 24.3463 254.193 23.5042 252.754 23.0523C250.972 22.4909 248.514 22.977 247.41 24.1204C246.391 25.1679 245.714 26.4208 245.325 28.0572C244.913 29.7552 245.652 33.5687 246.912 36.9099C246.974 37.0468 247.332 37.7657 247.682 38.4709C248.048 39.1967 247.379 39.806 246.616 39.45C246.585 39.4363 246.266 39.3062 245.893 39.1556C244.874 38.7448 243.917 38.1149 243.171 37.2933C241.428 35.3763 240.868 33.6235 240.207 32.0693C239.935 31.4257 238.978 28.6939 238.62 27.7491C238.41 27.1945 236.94 26.4345 236.123 26.4072C235.649 26.3866 234.949 27.619 234.653 28.0709C234.583 28.1804 234.404 28.1599 234.303 28.0435C233.852 27.5163 233.471 26.5989 232.965 26.3113C231.993 25.7499 230.85 25.9347 230.336 25.9827C229.597 26.058 229.932 26.414 229.014 27.7559L228.462 28.7145C228.345 28.9199 227.995 28.8377 227.894 28.5844C227.59 27.8107 227.108 26.5989 226.953 26.3935C226.431 25.7156 225.49 26.3866 225.109 26.4688C224.316 26.7084 223.771 26.8864 223.74 27.2904C223.616 27.8586 224.16 37.2796 219.999 40.9289C219.882 41.0316 219.579 40.1073 219.376 39.4363C218.101 35.253 215.612 29.1595 215.433 28.4748C214.406 24.716 213.932 21.2516 213.465 20.9435C212.524 20.3479 211.489 20.9709 210.307 21.9637C210.042 22.7853 211.03 23.4631 211.396 24.7913C212.057 27.7902 212.399 31.4052 210.447 35.7665C210.416 35.835 210.338 35.8829 210.252 35.8624C209.381 35.6022 207.444 33.1237 207.071 32.8361C206.495 32.3295 206.184 32.2884 205.679 32.4322C205.523 32.4801 204.916 32.7403 205.134 33.7468C205.344 34.7053 205.982 38.5668 206.62 40.2031C206.9 40.7098 206.169 40.8536 205.694 40.9289C204.387 41.1754 203.757 41.237 202.482 40.9426C201.183 40.6413 200.724 39.4637 200.459 38.6832C199.728 36.4512 197.426 30.7822 197.161 28.9952C196.975 27.7354 197.06 26.4072 197.13 25.1268C197.154 24.6818 197.185 24.2299 197.2 23.7917C197.216 23.2782 197.091 22.4224 196.072 22.4224C195.746 22.4224 195.497 22.484 195.31 22.6141C195.03 22.8127 194.159 22.9701 194.12 23.5179C194.065 24.2573 194.509 25.1474 194.478 25.8937C194.439 26.7632 192.432 35.6364 192.168 35.4858C191.133 34.8833 189.056 32.3363 187.641 32.8909C187.228 33.0826 186.194 33.6372 187.314 36.458C187.687 37.4371 188.185 38.3956 188.675 39.3268C188.846 39.6554 189.017 39.9772 189.181 40.3058L189.251 40.4359C189.468 40.8467 188.978 42.1202 187.897 42.3461C185.05 42.9486 183.16 42.3804 181.239 41.6272C180.111 40.9494 184.016 40.3058 180.998 31.7407C179.909 28.6597 177.746 26.5099 175.522 26.2018C174.075 26.01 173.25 26.2223 172.527 27.1055C169.354 32.4801 174.371 38.8338 176.323 40.6619C176.657 40.9768 175.506 41.5314 175.125 41.6546C173.562 42.1681 171.485 42.6268 166.18 40.6276C165.013 40.2442 164.305 39.9909 164.469 39.3336C164.469 39.3336 168.125 25.8868 169.112 24.1135C169.175 24.004 169.276 23.9218 169.392 23.8739C189.165 16.2262 180.337 4.70331 177.848 2.10158C177.832 2.08789 177.824 2.08104 177.809 2.06735C175.942 0.341998 171.85 -1.65722 170.085 2.2796C168.552 4.65538 166.133 19.3483 165.317 22.6278C165.223 23.3056 162.757 23.8191 162.05 23.9766C157.943 24.8872 156.364 25.2158 152.513 24.0314C151.315 23.6685 145.972 20.6149 144.712 20.2383C144.618 20.2246 144.525 20.2178 144.432 20.2041C143.436 20.2383 142.775 20.745 142.658 21.7514C142.502 22.3608 142.448 22.7237 143.21 22.9017C144.369 23.1961 145.598 23.5726 146.851 24.0177C147.551 24.271 151.284 25.8046 152.552 26.1333C154.948 26.7495 157.717 26.8248 160.789 26.3387C161.077 26.2908 163.426 25.6335 163.776 25.5582C164.461 25.4075 163.59 27.2288 163.387 27.8655C162.672 30.0838 161.451 34.0275 161.108 35.9856C161.023 36.4649 160.362 36.1773 159.817 35.7391C158.23 34.4588 157.375 33.3976 155.982 31.8092C155.119 30.8232 152.505 28.7692 151.774 28.2284C149.744 26.9891 149.246 27.5232 148.873 27.6327C146.594 29.0226 147.185 40.7646 155.399 46.3172C156.869 47.3236 157.997 48.2616 159.49 47.9125C161.855 47.6249 163.294 43.5922 163.823 42.127C163.924 41.8395 164.36 41.7299 164.811 41.8737C165.97 42.2366 168.047 42.9007 168.762 43.1266C172.006 44.1331 174.565 44.1126 177.046 43.0171C177.56 42.7912 178.011 43.0856 180.274 43.9893C185.323 45.2012 188.333 44.5302 189.904 43.3184C190.907 42.5515 191.506 42.8322 192.175 43.2773C193.645 44.2563 200.42 49.8364 202.225 44.5987C202.505 43.8661 202.451 43.0445 202.661 43.0856C205.329 43.6196 207.779 42.3187 207.888 42.4077C208.728 43.9072 211.746 45.4408 213.169 45.9406C214.857 46.5157 218.249 47.0498 219.944 44.8109C220.691 43.9003 220.286 43.3526 220.582 43.2362C220.994 42.9829 222.037 42.3667 222.542 41.6752C225.646 37.0879 225.249 32.309 225.622 32.1515C225.864 32.0488 227.116 40.9837 227.777 43.9756C227.87 44.7082 229.208 44.6877 230.173 45.0163C230.966 44.8794 231.371 44.5371 231.347 44.2084C231.277 43.3389 230.78 41.9627 230.678 41.0932C230.507 39.6417 229.963 36.9715 229.924 35.4721C229.652 31.4531 230.476 30.433 230.811 29.9469C231.293 29.2417 232.001 29.2964 232.436 29.9879C232.584 30.2207 232.701 30.4261 232.755 30.5494C233.3 31.905 235.237 41.4561 235.501 42.3735C235.626 42.8049 236.963 42.9212 237.438 42.9623C237.866 42.9897 238.231 43.1335 238.433 42.9076C238.706 42.5789 238.838 42.0928 238.737 41.6409C238.589 40.9837 236.878 34.315 236.73 33.4181C236.691 33.1853 236.31 31.2957 236.271 30.4672C236.24 29.9058 236.893 29.2964 237.415 30.2892C238.69 32.6992 239.515 36.5402 243.007 39.6075C244.648 40.8946 245.846 41.771 247.9 42.6474C249.09 43.154 252.209 43.8798 253.135 44.2495C255.282 45.1122 257.249 45.0163 259.529 44.1331C259.995 43.9551 260.446 43.736 260.835 43.4553C261.815 42.7364 262.29 41.949 262.671 41.9901C263.169 42.0517 263.309 43.6333 265.246 45.0985C265.845 45.5435 266.654 45.7421 267.47 45.6325C268.225 45.5298 268.878 45.1875 269.314 44.6535C269.602 44.3043 270.395 42.1544 270.714 41.2849C270.776 41.1206 271.009 41.1137 271.149 41.2712L272.565 42.8528C273.53 43.9893 275.404 44.3659 276.742 43.6881C277.761 43.1746 278.049 42.3393 278.204 41.593C278.368 40.7714 278.578 36.8346 278.866 36.9989L279.776 38.1834C283.136 42.6611 287.095 44.6808 289.421 45.434C296.935 48.2274 302.792 45.5709 304.013 43.8182C305.304 41.9627 306.751 39.7239 305.071 36.3964V36.3827ZM169.882 19.4647L170.474 16.055C170.598 15.1855 171.827 8.42103 172.784 5.34689C173.072 4.41575 173.663 2.65616 174.938 3.42299C177.256 4.8197 178.781 7.23656 178.913 10.0985C179.014 12.3236 178.275 14.8089 176.401 17.3011C175.421 18.7321 171.881 20.2383 169.875 21.3817C169.766 21.4433 169.704 21.3817 169.672 21.2311C169.657 21.1695 169.657 21.0873 169.657 20.9983C169.657 20.5122 169.812 19.7385 169.875 19.4715L169.882 19.4647ZM159.794 39.094C159.794 39.094 158.767 42.2777 158.02 43.8045C157.818 44.2221 155.944 43.7976 155.313 43.4964C150.398 41.1548 149.783 35.8418 149.783 33.3291C149.783 32.4938 149.853 31.9666 149.853 31.9666C149.767 31.0903 150.965 30.7342 151.945 31.3847C154.419 33.021 156.83 35.6844 158.246 36.8757C159.35 38.0601 159.918 38.4162 159.856 38.8817C159.848 38.9502 159.825 39.0187 159.794 39.094ZM179.559 39.1351C179.395 39.3268 179.318 39.6623 178.999 39.4226C178.999 39.4226 174.689 35.8144 174.456 31.1656C174.425 30.5014 174.472 29.8168 174.627 29.1184C174.651 28.3174 177.373 26.3729 179.559 32.7608C179.948 33.8905 180.189 35.4173 180.165 36.7319C180.142 37.7589 179.963 38.6558 179.559 39.1419V39.1351ZM191.024 39.4637C190.581 39.1419 189.017 35.8761 188.963 35.5337C188.963 35.4926 188.955 35.4516 188.963 35.4105C188.994 35.1435 189.297 35.0202 190.021 35.568C190.487 35.8898 191.576 36.814 192.035 37.2659C192.074 37.3002 192.09 37.3686 192.09 37.4508C192.09 38.0533 191.32 39.6828 191.024 39.4705V39.4637ZM195.201 34.6779C195.302 34.4314 195.707 34.5067 195.823 34.7943L197.216 38.1491C197.231 38.1834 197.239 38.2245 197.239 38.2587C197.239 38.512 196.936 38.7174 196.679 38.5805L195.45 37.9848C194.944 37.6699 194.649 37.4302 194.493 37.1906C194.416 37.0811 194.377 36.9647 194.361 36.8483C194.361 36.8414 194.361 36.8277 194.361 36.8209C194.322 36.3485 194.734 35.7802 195.217 34.6642L195.201 34.6779ZM198.204 43.2499C198.025 43.6538 197.589 43.8729 197.091 43.8318C196.71 43.7976 196.049 43.558 195.901 43.4827C194.991 43.0171 194.4 42.6611 193.63 42.127C193.14 41.7916 193.015 41.6478 193.008 41.3465C193.008 41.3054 193.008 41.2575 193.008 41.2096C193.039 40.9631 193.334 40.2648 193.7 39.9498C193.957 39.7239 194.058 39.3405 194.384 39.6006C195.543 40.5318 196.531 41.2096 198.499 42.1407C198.499 42.1613 198.499 42.1887 198.499 42.2229C198.484 42.4557 198.305 42.9897 198.188 43.2499H198.204ZM212.376 36.2184L213.286 33.2264C213.364 32.9594 213.465 32.4185 213.869 32.4185C214.274 32.4185 214.624 33.3086 214.624 33.3086C214.624 33.3086 216.553 39.0324 216.677 39.5185C216.708 39.6417 216.724 39.7376 216.716 39.8197C216.701 40.0594 216.514 40.1141 216.172 40.0388C215.713 39.9361 213.286 39.1077 212.726 38.0601C212.368 37.4919 212.267 37.1085 212.275 36.7798C212.275 36.5813 212.321 36.4032 212.368 36.2252L212.376 36.2184ZM209.023 39.2925C208.79 39.5938 208.596 39.9703 208.401 39.8197C208.207 39.6691 208.09 39.1419 207.857 38.3477C207.623 37.5535 207.195 35.6364 207.195 35.6364C207.195 35.6364 207.102 35.3283 207.328 35.4036C207.561 35.479 208.004 36.1294 208.666 36.6155C209.327 37.1085 209.871 37.4371 209.871 37.6014C209.871 37.7657 209.568 38.3545 209.568 38.3545C209.568 38.3545 209.249 38.9844 209.016 39.2857L209.023 39.2925ZM216.257 43.3594C216.055 43.6196 215.798 43.9209 215.612 44.0441C214.997 44.4275 214.149 44.4617 213.34 44.2153C212.002 43.8182 211.225 43.4074 210.649 42.8391C210.626 42.8186 210.602 42.7843 210.579 42.7638C210.268 42.4351 210.003 42.0654 209.739 41.6067C209.677 41.504 209.653 41.3944 209.653 41.2917C209.653 41.189 209.685 41.0932 209.739 41.011C210.081 40.5455 210.844 39.3336 210.999 38.9297C211.054 38.7859 211.24 38.7516 211.45 38.9707C211.45 38.9707 214.188 41.9285 216.397 42.1544C216.708 42.1887 216.794 42.3324 216.763 42.5173C216.716 42.8185 216.366 43.2225 216.257 43.3594ZM258.883 40.3811C258.37 40.9768 255.974 43.5854 252.512 40.6687C252.388 40.566 252.263 40.4496 252.123 40.3127C252.092 40.2784 252.061 40.2442 252.03 40.21C251.548 39.717 251.011 39.0392 250.49 38.2108C250.342 37.9848 250.202 37.7452 250.062 37.4919C249.922 37.2454 249.782 36.9852 249.65 36.7113C249.323 36.0609 249.02 35.3489 248.763 34.5889C248.701 34.404 248.639 34.2123 248.584 34.0206C247.884 31.6791 247.62 28.9336 248.382 26.0511C248.779 25.0241 249.603 24.4422 250.529 24.4422C251.392 24.4627 255.95 27.7628 257.094 30.1523C257.428 30.8506 259.536 36.2526 259.925 37.5946C259.956 37.6973 259.972 37.8137 259.98 37.9232C260.011 38.7243 259.474 39.7033 258.898 40.3743L258.883 40.3811Z" fill="#009296"/>
<path d="M196.694 38.5881L195.465 37.9925C194.959 37.6775 194.663 37.4379 194.508 37.1982C194.663 37.431 194.967 37.6775 195.465 37.9925L196.694 38.5881C196.95 38.7182 197.261 38.5128 197.254 38.2663C197.254 38.5196 196.95 38.725 196.694 38.5881Z" fill="#009296"/>
<path d="M191.041 39.4619C190.598 39.1401 189.034 35.8743 188.98 35.5319C188.98 35.4909 188.972 35.4498 188.98 35.4087C188.98 35.4498 188.98 35.4909 188.98 35.5319C189.034 35.8743 190.598 39.1401 191.041 39.4619C191.337 39.6741 192.115 38.0446 192.107 37.4421C192.107 38.0446 191.337 39.6741 191.041 39.4619Z" fill="#009296"/>
<path d="M158.019 43.804C157.816 44.2216 155.942 43.7971 155.312 43.4959C155.934 43.7903 157.809 44.2216 158.019 43.804Z" fill="#009296"/>
<path d="M179.004 39.4221C179.322 39.6617 179.408 39.3262 179.564 39.1345C179.4 39.3262 179.322 39.6617 179.004 39.4221Z" fill="#009296"/>
<path d="M197.091 43.8301C196.71 43.7958 196.049 43.5562 195.901 43.4809C194.984 43.0153 194.4 42.6593 193.63 42.1252C193.14 41.7898 193.016 41.646 193.008 41.3447C193.008 41.646 193.132 41.7898 193.63 42.1252C194.4 42.6593 194.991 43.0153 195.901 43.4809C196.049 43.5562 196.71 43.7958 197.091 43.8301C197.589 43.8711 198.025 43.6452 198.204 43.2481C198.32 42.9948 198.499 42.4607 198.515 42.2211C198.499 42.4539 198.32 42.9879 198.204 43.2481C198.025 43.652 197.589 43.8711 197.091 43.8301Z" fill="#009296"/>
<path d="M258.9 40.3886C258.387 40.9774 255.991 43.5792 252.53 40.6693C252.405 40.5666 252.281 40.4502 252.141 40.3133C252.273 40.4434 252.405 40.5666 252.53 40.6693C255.991 43.5792 258.387 40.9774 258.9 40.3886C259.483 39.7108 260.02 38.7249 259.981 37.9238C260.012 38.7249 259.476 39.704 258.9 40.3749V40.3886Z" fill="#009296"/>
<path d="M250.069 37.4915C249.928 37.245 249.788 36.9848 249.656 36.7109C249.788 36.978 249.928 37.2381 250.069 37.4915Z" fill="#009296"/>
<path d="M252.048 40.2082C251.566 39.7152 251.029 39.0374 250.508 38.209C251.037 39.0374 251.573 39.7152 252.048 40.2082Z" fill="#009296"/>
<path d="M212.741 38.0591C212.383 37.4909 212.282 37.1074 212.289 36.7788C212.289 37.1074 212.383 37.4977 212.741 38.0591Z" fill="#009296"/>
<path d="M215.634 44.0439C215.02 44.4273 214.172 44.4615 213.363 44.2151C214.172 44.4547 215.02 44.4273 215.634 44.0439C215.821 43.9275 216.078 43.6194 216.28 43.3592C216.078 43.6194 215.821 43.9207 215.634 44.0439Z" fill="#009296"/>
<path d="M209.672 41.292C209.672 41.3947 209.703 41.5042 209.757 41.6069C210.022 42.0588 210.279 42.4354 210.598 42.764C210.286 42.4354 210.022 42.0657 209.757 41.6069C209.695 41.5042 209.672 41.3947 209.672 41.292Z" fill="#009296"/>
</svg>
