<svg width="90" height="90" viewBox="0 0 90 90" fill="none" xmlns="http://www.w3.org/2000/svg">
<path d="M34.6062 63.2641L63.2641 45L34.6062 26.7359V63.2641ZM45.0083 90C38.833 90 33.0146 88.819 27.553 86.4568C22.0914 84.0947 17.3155 80.8693 13.2253 76.7807C9.135 72.692 5.90803 67.918 3.54434 62.4588C1.18145 57.0004 0 51.1836 0 45.0083C0 38.7841 1.18105 32.9337 3.54316 27.4571C5.90526 21.9805 9.13066 17.2168 13.2193 13.1661C17.308 9.11526 22.082 5.90803 27.5412 3.54434C32.9996 1.18145 38.8164 0 44.9917 0C51.2159 0 57.0663 1.18105 62.5429 3.54316C68.0195 5.90526 72.7832 9.11092 76.8339 13.1601C80.8847 17.2093 84.092 21.9711 86.4557 27.4453C88.8186 32.9195 90 38.7683 90 44.9917C90 51.167 88.819 56.9854 86.4568 62.447C84.0947 67.9085 80.8891 72.6845 76.8399 76.7747C72.7907 80.865 68.0289 84.092 62.5547 86.4557C57.0805 88.8186 51.2317 90 45.0083 90ZM45 84.6249C56.0282 84.6249 65.3893 80.7659 73.0836 73.048C80.7778 65.3293 84.6249 55.98 84.6249 45C84.6249 33.9718 80.7778 24.6107 73.0836 16.9164C65.3893 9.22223 56.0282 5.37513 45 5.37513C34.02 5.37513 24.6707 9.22223 16.952 16.9164C9.23408 24.6107 5.37513 33.9718 5.37513 45C5.37513 55.98 9.23408 65.3293 16.952 73.048C24.6707 80.7659 34.02 84.6249 45 84.6249Z" fill="white"/>
</svg>
