<svg width="110" height="40" viewBox="0 0 110 40" fill="none" xmlns="http://www.w3.org/2000/svg">
<path d="M84.793 17.562H81.4453V20.3119H84.793C85.1591 20.3119 85.4655 20.1998 85.6672 19.9756C85.8839 19.7365 86.0409 19.2059 86.0409 18.8547C86.0409 18.5035 85.9064 18.1523 85.6897 17.9132C85.4431 17.6517 85.1217 17.562 84.793 17.562Z" fill="white"/>
<path d="M71.1521 18.7793L69.6875 22.65H72.7138L71.2492 18.7793H71.1521Z" fill="white"/>
<path d="M32.2597 17.562H28.8672V20.3119H32.2597C32.9621 20.3119 33.5225 19.6692 33.5225 18.8398C33.5225 18.5035 33.403 18.1748 33.2012 17.9356C32.9247 17.6143 32.5735 17.562 32.2597 17.562Z" fill="white"/>
<path d="M19.2698 16.377H15.4141V19.5826H19.2698C19.6958 19.5826 20.047 19.4556 20.2786 19.1941C20.5327 18.9101 20.7045 18.3123 20.7045 17.8939C20.7045 17.4829 20.5476 17.0719 20.301 16.7879C20.0245 16.4816 19.6584 16.377 19.2698 16.377Z" fill="white"/>
<path d="M44.0634 17.2783C42.2401 17.2783 40.8203 18.9447 40.8203 20.9473C40.8203 22.9873 42.2326 24.691 44.0634 24.691C45.909 24.691 47.3587 22.9873 47.3587 20.9473C47.3587 18.9521 45.9016 17.2783 44.0634 17.2783Z" fill="white"/>
<path d="M91.1937 0H90.1625H52.621V8.89221H51.3955V1.91295H18.1132C8.1076 1.91295 0 10.043 0 20.0785C0 30.1065 8.1076 38.244 18.1132 38.244H51.3955V31.6084H52.621V40H90.1625C100.587 40 109.045 30.5324 109.045 20.0785C109.045 9.61704 101.625 0 91.1937 0ZM22.8507 21.2516C22.0213 22.1409 20.8407 22.6639 19.0772 22.6639H15.4157V27.4612H12.0306V13.301H19.0772C20.878 13.301 22.1707 13.8614 23.045 14.9299C23.7026 15.7295 24.0912 16.7532 24.0912 17.904C24.0912 19.1295 23.6279 20.4297 22.8507 21.2516ZM33.6409 27.0204L31.5113 22.9404H28.8661V27.0204H25.8771V14.9299H32.0867C33.7755 14.9299 34.8365 15.468 35.5539 16.2825C36.1517 16.9699 36.5104 17.8591 36.5104 18.853C36.5104 20.3325 35.7258 21.6776 34.4629 22.3874L37.026 27.0204H33.6409ZM44.065 27.394C40.5156 27.394 37.7359 24.5246 37.7359 20.9527C37.7359 17.4332 40.5156 14.5638 44.065 14.5638C47.6144 14.5638 50.4614 17.4332 50.4614 20.9527C50.4614 24.5171 47.6144 27.394 44.065 27.394ZM58.7409 27.4239C54.7805 27.4239 52.1502 24.263 52.1502 20.3923C52.1502 16.6038 54.7955 13.3831 58.6438 13.3831C60.8182 13.3831 63.0226 14.3172 64.5395 15.6548L62.6415 17.9638C61.5356 16.9475 60.1084 16.3647 59.0398 16.3647C56.8504 16.3647 55.4381 18.2104 55.4381 20.4147C55.4381 22.6191 56.8877 24.4648 59.1295 24.4648C60.5044 24.4648 61.9316 23.5531 62.9853 22.4622L64.9057 24.7338C63.4859 26.1461 61.3488 27.4239 58.7409 27.4239ZM74.3583 27.0204L73.6559 25.1672H68.7465L68.059 27.0204H64.9505L70.0392 14.9299H72.4752L77.5715 27.0204H74.3583ZM87.8909 21.7373C87.1661 22.4995 86.1424 22.9404 84.6105 22.9404H81.4347V27.0204H78.4906V14.9299H84.6105C86.1723 14.9299 87.3006 15.4082 88.0553 16.3198C88.6307 17.0073 88.9595 17.8741 88.9595 18.8605C88.9595 19.9066 88.556 21.0349 87.8909 21.7373ZM95.2886 27.394C92.5014 27.394 90.5362 26.2283 89.2061 25.1523L90.7827 22.9479C91.5375 23.5382 93.286 24.8534 95.2363 24.8534C96.5963 24.8534 97.3884 24.2033 97.3884 23.4112C97.3884 22.5444 96.4469 22.3725 95.0346 22.2455C92.5836 22.0213 89.7441 21.7448 89.7441 18.5018C89.7441 15.5053 92.2847 14.5563 94.4144 14.5563C96.6636 14.5563 98.6662 15.3932 99.66 16.0359L98.0609 18.2925C97.3361 17.8293 95.9612 17.1044 94.3471 17.1044C93.4579 17.1044 92.6807 17.5453 92.6807 18.3299C92.6807 19.1818 93.9436 19.2565 95.1317 19.3835C97.1493 19.533 100.325 19.8244 100.325 23.1272C100.333 26.1909 98.046 27.394 95.2886 27.394Z" fill="white"/>
<path d="M108.311 35.3317C107.796 34.8161 107.175 34.562 106.451 34.562C105.726 34.562 105.106 34.8161 104.597 35.3317C104.082 35.8547 103.82 36.475 103.82 37.2073C103.82 37.947 104.074 38.5747 104.582 39.0978C105.091 39.6134 105.718 39.8824 106.443 39.8824C107.175 39.8824 107.796 39.6209 108.304 39.0978C108.819 38.5747 109.073 37.947 109.073 37.2073C109.081 36.475 108.827 35.8547 108.311 35.3317ZM108.05 38.8437C107.609 39.2921 107.071 39.5162 106.443 39.5162C105.815 39.5162 105.277 39.2921 104.837 38.8437C104.396 38.3954 104.179 37.8499 104.179 37.2147C104.179 36.5796 104.396 36.0416 104.837 35.5932C105.277 35.1449 105.808 34.9207 106.436 34.9207C107.063 34.9207 107.594 35.1449 108.042 35.5932C108.483 36.0341 108.7 36.5796 108.7 37.2147C108.707 37.8499 108.491 38.3954 108.05 38.8437Z" fill="white"/>
<path d="M107.595 38.474C107.587 38.3918 107.587 38.3246 107.587 38.2573V38.0406C107.587 37.8987 107.535 37.7417 107.43 37.5923C107.326 37.4354 107.161 37.3382 106.93 37.3083C107.109 37.2784 107.251 37.2336 107.348 37.1663C107.535 37.0468 107.632 36.8525 107.632 36.591C107.632 36.2248 107.483 35.9782 107.184 35.8512C107.012 35.7765 106.75 35.7466 106.392 35.7466H105.383V38.6608H105.891V37.5101H106.294C106.563 37.5101 106.75 37.54 106.862 37.6072C107.049 37.7118 107.139 37.936 107.139 38.2723V38.5039L107.154 38.6011C107.154 38.616 107.154 38.6235 107.161 38.6309C107.161 38.6384 107.169 38.6534 107.169 38.6608H107.647L107.632 38.6235C107.61 38.5936 107.602 38.5487 107.595 38.474ZM106.84 37.0842C106.735 37.129 106.571 37.1514 106.354 37.1514H105.891V36.0903H106.324C106.608 36.0903 106.818 36.1277 106.945 36.1949C107.072 36.2697 107.139 36.4116 107.139 36.6209C107.139 36.8525 107.042 37.002 106.84 37.0842Z" fill="white"/>
</svg>
