<svg width="339" height="56" viewBox="0 0 339 56" fill="none" xmlns="http://www.w3.org/2000/svg">
<g clip-path="url(#clip0_1118_2156)">
<path d="M211.373 -0.000522448C226.669 -0.182422 239.446 12.2878 239.406 27.8907C239.406 35.5102 236.602 42.0788 231.179 47.4953C225.735 52.9523 219.031 55.6808 211.393 55.6808C203.695 55.6808 196.951 52.9119 191.527 47.4347C186.164 41.9979 183.422 35.389 183.422 27.6886C183.402 12.3484 196.26 -0.202633 211.373 -0.000522448ZM214.501 31.9733C214.806 31.751 215.07 31.5691 215.314 31.3468C216.025 30.7808 216.756 30.2351 217.426 29.6086C219.316 27.9109 220.819 25.8898 222.16 23.7474C223.866 20.9987 225.308 18.1288 226.263 15.0365C226.669 13.743 227.055 12.4292 226.974 11.0347C226.913 9.98372 226.507 9.74118 225.572 10.2869C225.105 10.5698 224.658 10.873 224.211 11.2166C222.363 12.6111 220.575 14.0663 218.706 15.4003C215.639 17.6033 212.389 19.3616 208.509 19.7456C206.518 19.9275 204.548 19.8669 202.598 19.6042C200.18 19.2808 197.844 18.6138 195.488 17.9469C194.594 17.7043 193.64 17.5628 192.705 17.482C191.852 17.4214 191.527 17.8458 191.71 18.6744C191.852 19.3414 192.055 20.0286 192.36 20.6551C194.858 25.5664 198.515 29.3256 203.492 31.8116C203.817 31.9733 204.121 32.135 204.527 32.3573C204.304 32.6807 204.142 32.9434 203.979 33.1657C202.151 35.5911 200.81 38.2589 200.201 41.2501C200.099 41.715 199.998 42.2001 200.262 42.6245C200.688 42.867 201.013 42.6851 201.318 42.483C201.785 42.1798 202.232 41.8767 202.679 41.5533C203.877 40.7044 205.096 39.896 206.478 39.4109C208.509 38.7036 210.459 38.6833 212.368 39.8354C214.034 40.8459 215.334 42.2607 216.573 43.6957C217.487 44.7466 218.32 45.8582 219.214 46.9294C219.417 47.172 219.702 47.3134 220.027 47.5762C220.311 46.7071 220.25 45.9997 220.108 45.2923C219.864 44.0999 219.62 42.9074 219.255 41.7554C218.259 38.5014 216.959 35.3687 214.887 32.5998C214.745 32.4179 214.664 32.1956 214.501 31.9127V31.9733ZM210.865 14.0865C210.987 13.359 210.703 12.6314 210.256 11.9644C209.342 10.59 207.575 10.5294 206.579 11.8229C205.462 13.2781 205.604 15.2386 206.803 16.5523C207.635 17.482 208.976 17.5224 209.911 16.6938C210.682 16.0268 210.906 15.1375 210.865 14.0663V14.0865Z" fill="#009296"/>
<path d="M292.38 46.061C291.811 46.3237 291.242 46.6471 290.653 46.829C286.509 48.0821 282.487 45.0302 281.695 41.2508C281.268 39.1488 281.593 37.1884 282.772 35.43C284.965 32.176 288.967 31.4687 291.608 32.9036C291.872 33.0451 292.116 33.227 292.441 33.4291C292.461 32.6813 292.928 32.6005 293.517 32.6207C294.208 32.6409 294.919 32.6207 295.61 32.6207C296.3 32.6207 296.463 32.7824 296.503 33.4695C296.503 33.611 296.503 33.7727 296.503 33.9142C296.503 37.4107 296.544 40.887 296.503 44.3835C296.503 45.7174 296.321 47.0311 295.894 48.3044C294.96 51.1542 292.542 52.7104 289.597 52.8519C287.911 52.9327 286.326 52.7104 284.844 51.8616C283.503 51.0935 282.528 50.0021 281.878 48.6278C281.573 48.0013 281.736 47.7385 282.467 47.7183C283.462 47.6981 284.478 47.7183 285.473 47.7183C285.88 47.7183 286.164 47.88 286.428 48.1629C287.444 49.1735 288.723 49.3756 290.064 49.1533C291.588 48.9107 292.441 47.7385 292.359 46.0812L292.38 46.061ZM292.502 39.5328C292.441 39.2297 292.4 38.785 292.238 38.401C291.689 37.0267 290.714 36.097 289.191 36.0161C287.87 35.9555 286.733 36.4608 286.062 37.6936C285.514 38.7244 285.392 39.8158 285.798 40.9476C286.651 43.2517 289.252 44.0803 291.059 42.6049C291.994 41.8369 292.359 40.8061 292.481 39.5328H292.502Z" fill="#009296"/>
<path d="M299.008 8.91294C300.755 7.9226 303.396 7.63964 305.65 9.80222C306.138 9.47884 306.626 9.11505 307.133 8.81188C309.327 7.57901 313.39 7.96302 314.974 10.8936C315.462 11.8031 315.685 12.7732 315.706 13.7636C315.767 16.4921 315.726 19.2205 315.726 21.949C315.726 22.1309 315.665 22.2926 315.624 22.4543C314.832 22.6766 312.577 22.6766 311.724 22.4543C311.724 22.1714 311.663 21.848 311.663 21.5246C311.663 19.4227 311.663 17.3409 311.663 15.239C311.663 14.6731 311.582 14.087 311.48 13.521C311.359 12.7732 310.973 12.2275 310.18 12.0456C309.307 11.8435 308.515 12.0052 307.986 12.753C307.743 13.1168 307.54 13.5615 307.519 14.0061C307.418 15.4007 307.377 16.775 307.336 18.1696C307.316 19.2812 307.336 20.413 307.336 21.5448V22.5149C306.951 22.5554 306.666 22.5958 306.361 22.5958C305.732 22.5958 305.082 22.5958 304.432 22.5958C303.314 22.5958 303.274 22.5554 303.274 21.4033C303.274 19.4631 303.274 17.5228 303.274 15.5826C303.274 15.1379 303.314 14.6731 303.253 14.2284C303.193 13.7838 303.071 13.3189 302.888 12.9349C302.441 12.0659 301.649 11.9446 300.775 12.0456C300.024 12.1265 299.556 12.5711 299.374 13.2987C299.231 13.8848 299.11 14.4912 299.11 15.0773C299.069 17.2197 299.11 19.3822 299.11 21.5448C299.11 22.5554 299.028 22.616 298.013 22.616C297.078 22.616 296.144 22.616 295.128 22.5958C295.088 22.1916 295.047 21.9086 295.047 21.6054C295.047 17.6239 295.047 13.6625 295.047 9.68095C295.047 8.62998 295.108 8.56935 296.205 8.56935C296.794 8.56935 297.363 8.54914 297.931 8.56935C298.236 8.58956 298.541 8.73104 299.008 8.87251V8.91294Z" fill="#009296"/>
<path d="M258.016 33.49C258.077 32.7018 258.524 32.5603 259.154 32.6007C259.784 32.6412 260.434 32.6007 261.063 32.6007C261.795 32.6007 261.917 32.7422 261.937 33.4496C261.937 34.1772 261.937 34.9048 261.937 35.6324C261.937 38.9268 261.937 42.2414 261.937 45.5358C261.937 46.5666 261.876 46.6272 260.86 46.6272C260.251 46.6272 259.641 46.6272 259.032 46.6272C258.484 46.6272 258.016 46.5666 258.077 45.7581C257.448 46.0613 256.919 46.324 256.371 46.5666C253.243 47.9207 249.566 46.4655 248.083 43.6157C246.58 40.7458 246.621 37.8556 248.408 35.1675C250.216 32.4391 253.426 31.5094 256.351 32.5805C256.879 32.7826 257.366 33.106 258.016 33.4496V33.49ZM251.15 39.6544C251.15 41.5138 252.329 42.9892 254.076 43.3126C255.599 43.5955 257.143 42.6658 257.752 41.1096C258.098 40.2405 258.118 39.3512 257.854 38.4417C257.326 36.5823 255.579 35.7537 253.893 36.077C252.085 36.4206 251.15 38.0981 251.15 39.6544Z" fill="#009296"/>
<path d="M303.538 41.6149C303.762 42.6052 304.351 43.1105 305.123 43.3732C306.525 43.8583 307.825 43.6966 308.942 42.6861C309.287 42.3829 309.632 42.2212 310.079 42.2414C310.831 42.2616 311.603 42.2414 312.375 42.2414C313.167 42.2616 313.33 42.5446 313.025 43.2924C312.476 44.6465 311.481 45.6571 310.201 46.2634C307.439 47.5569 304.676 47.4963 302.157 45.6773C298.318 42.9286 298.176 37.7546 301.04 34.541C302.421 33.005 304.128 32.1561 306.159 32.0753C308.475 31.9742 310.465 32.8433 311.969 34.6219C313.269 36.1579 313.898 37.9769 313.736 40.0182C313.736 40.2001 313.736 40.382 313.695 40.5639C313.553 41.3926 313.39 41.5138 312.537 41.5138C310.851 41.5138 309.186 41.5138 307.5 41.5138C306.423 41.5138 305.367 41.5138 304.29 41.5138C304.046 41.5138 303.823 41.5542 303.498 41.5745L303.538 41.6149ZM309.389 38.0173C308.962 36.7036 307.743 35.875 306.403 35.9154C305.103 35.976 303.884 36.8653 303.62 38.0173H309.389Z" fill="#009296"/>
<path d="M287.47 9.43845C287.511 8.6098 288.059 8.52895 288.689 8.56937C289.298 8.58958 289.908 8.56937 290.517 8.56937C291.289 8.56937 291.411 8.71085 291.411 9.49908C291.411 12.0255 291.411 14.5316 291.411 17.058C291.411 18.6345 291.411 20.2109 291.411 21.7874C291.411 22.0299 291.35 22.2522 291.309 22.616C290.212 22.616 289.156 22.6564 288.1 22.5756C287.836 22.5756 287.612 22.1512 287.409 21.9491C286.475 22.2724 285.5 22.6969 284.464 22.9596C282.656 23.4043 281.031 22.8181 279.548 21.8278C277.76 20.6353 276.907 18.8366 276.623 16.7953C276.277 14.2285 276.887 11.884 278.837 10.065C280.807 8.22579 283.123 7.72051 285.683 8.54916C286.251 8.73106 286.759 9.09486 287.45 9.43845H287.47ZM284.261 19.3014C284.362 19.3014 284.667 19.2408 284.951 19.1802C287.775 18.4728 288.242 14.6731 286.475 12.9147C285.743 12.1871 284.829 11.9244 283.814 12.0052C281.539 12.1669 280.665 14.188 280.645 15.6836C280.624 17.7047 282.148 19.3014 284.261 19.3216V19.3014Z" fill="#009296"/>
<path d="M269.774 46.6468C268.575 46.6468 267.478 46.6468 266.381 46.6468C266.016 46.6468 265.833 46.4244 265.812 46.0809C265.812 45.8787 265.812 45.6564 265.812 45.4543C265.812 41.5738 265.812 37.6933 265.812 33.8128C265.812 33.6309 265.812 33.449 265.812 33.2671C265.812 32.8629 266.036 32.6607 266.442 32.6405C267.295 32.6405 268.149 32.6001 269.002 32.6405C269.266 32.6405 269.53 32.8629 269.895 33.0245C270.038 32.9639 270.281 32.8426 270.525 32.7214C272.841 31.5491 276.254 32.4586 277.615 34.884C278.143 35.8137 278.407 36.8646 278.427 37.9358C278.468 40.543 278.447 43.1503 278.427 45.7575C278.427 46.5255 278.305 46.6468 277.513 46.6468C276.741 46.6468 275.989 46.6468 275.218 46.6468C274.486 46.6468 274.364 46.5053 274.364 45.6766C274.364 43.5545 274.364 41.4323 274.364 39.3102C274.364 38.6836 274.243 38.0369 274.06 37.4305C273.755 36.3998 272.983 35.8743 272.028 35.9349C271.114 35.9956 270.22 36.7434 270.038 37.6731C269.916 38.3602 269.835 39.0474 269.835 39.7548C269.814 41.7355 269.835 43.696 269.835 45.6766C269.835 45.9394 269.794 46.2021 269.774 46.6266V46.6468Z" fill="#009296"/>
<path d="M334.943 22.6159C334.943 22.1106 334.943 21.7872 334.943 21.4638C334.943 19.7257 334.943 18.0077 334.943 16.2696C334.943 15.4814 334.861 14.6931 334.739 13.9251C334.557 12.7529 333.947 12.1668 332.871 11.9849C332.16 11.8636 331.144 12.3082 330.88 12.955C330.636 13.5209 330.453 14.1677 330.433 14.774C330.372 16.9568 330.413 19.1396 330.413 21.3223C330.413 21.5649 330.413 21.8074 330.413 22.0499C330.392 22.3531 330.21 22.5754 329.885 22.5754C328.767 22.5754 327.65 22.5754 326.472 22.5754C326.431 22.2116 326.391 21.9489 326.391 21.6861C326.391 17.6439 326.391 13.622 326.391 9.57975C326.391 8.62983 326.492 8.5692 327.447 8.54899C327.934 8.54899 328.422 8.54899 328.909 8.54899C329.438 8.54899 329.945 8.54899 330.25 9.07448C331.753 8.12456 333.338 7.92245 334.963 8.40751C337.319 9.1149 338.518 10.5903 338.843 12.955C339.026 14.2081 339.005 15.4814 339.026 16.7547C339.046 18.3918 339.026 20.0288 339.026 21.6659C339.026 22.4542 338.904 22.5754 338.132 22.5956C337.136 22.5956 336.141 22.5956 334.963 22.5956L334.943 22.6159Z" fill="#009296"/>
<path d="M324.904 42.0593C325.148 42.0593 325.392 42.0795 325.635 42.0593C326.346 41.9785 326.834 42.1604 327.098 42.9284C327.301 43.5347 327.951 43.7571 328.52 43.5752C329.007 43.4135 329.292 43.0093 329.251 42.4636C329.231 42.0593 329.048 41.7764 328.662 41.6147C328.154 41.3924 327.646 41.2307 327.139 41.0084C326.428 40.685 325.676 40.402 325.006 39.9978C323.929 39.3309 323.421 38.2799 323.381 37.0066C323.32 34.2579 325.29 32.2772 328.073 32.2368C329.637 32.1964 330.957 32.6612 331.993 33.8132C332.562 34.4398 332.887 35.1876 332.928 36.0365C332.948 36.6428 332.806 36.8045 332.197 36.8247C331.628 36.8449 331.039 36.8247 330.47 36.8247C329.861 36.8449 329.353 36.8045 329.068 36.1173C328.886 35.7131 328.276 35.5918 327.87 35.8141C327.382 36.0567 327.301 36.6832 327.748 37.0066C327.992 37.1885 328.296 37.2895 328.56 37.3906C329.353 37.6938 330.165 37.9565 330.957 38.3001C332.583 39.0075 333.334 40.2808 333.314 42.0391C333.273 43.9187 332.501 45.3739 330.897 46.3643C330.186 46.8089 329.414 47.0515 328.56 47.0515C327.362 47.0515 326.184 47.0717 325.087 46.5058C323.563 45.7175 323.035 44.3432 322.852 42.7869C322.792 42.3423 323.056 42.0998 323.502 42.0998C323.949 42.0998 324.417 42.0998 324.884 42.0998L324.904 42.0593Z" fill="#009296"/>
<path d="M244.219 8.85249C244.584 8.75143 244.889 8.58974 245.194 8.58974C246.006 8.54932 246.839 8.56953 247.672 8.58974C248.424 8.58974 248.444 8.63017 248.708 9.35776C249.439 11.3789 250.191 13.4 250.922 15.4211C251.024 15.6636 251.125 15.9061 251.41 16.1891C251.633 15.5828 251.877 14.9966 252.1 14.3903C252.628 12.8341 253.157 11.298 253.685 9.74177C254.05 8.6908 254.152 8.60996 255.249 8.60996C255.98 8.60996 256.711 8.60996 257.443 8.60996C258.255 8.63017 258.458 8.89291 258.154 9.62051C256.813 12.9351 255.452 16.2497 254.091 19.5643C253.766 20.3728 253.421 21.2014 253.116 22.0099C252.933 22.4747 252.649 22.6768 252.161 22.6566C251.653 22.6364 251.125 22.596 250.617 22.6566C249.927 22.7374 249.622 22.3939 249.399 21.828C248.545 19.6654 247.672 17.5028 246.799 15.32C246.067 13.5212 245.336 11.7224 244.605 9.92367C244.483 9.6205 244.402 9.29713 244.239 8.8727L244.219 8.85249Z" fill="#009296"/>
<path d="M274.955 12.1877C274.284 12.2281 273.776 12.2685 273.187 12.3292C273.187 12.6728 273.126 12.9961 273.126 13.3195C273.126 16.0076 273.126 18.7158 273.126 21.4039C273.126 21.6464 273.167 21.9092 273.086 22.1315C273.005 22.3134 272.801 22.5761 272.619 22.5964C271.623 22.6368 270.608 22.6368 269.612 22.6166C269.287 22.6166 269.125 22.3942 269.084 22.0911C269.064 21.8486 269.084 21.606 269.084 21.3635C269.084 18.6956 269.084 16.0278 269.084 13.3599C269.084 13.0366 269.084 12.7132 269.084 12.3494C268.576 12.2887 268.15 12.2281 267.682 12.1675C267.54 11.1165 267.581 10.0857 267.642 9.07519C267.642 8.91351 267.926 8.69118 268.109 8.63055C268.353 8.5295 268.637 8.56992 268.942 8.5295C269.186 7.84232 269.064 7.13494 269.064 6.44776C269.084 4.95215 269.064 4.95215 270.567 4.95215C271.176 4.95215 271.786 4.95215 272.395 4.95215C272.944 4.97236 273.086 5.11384 273.106 5.67974C273.126 6.30629 273.106 6.95304 273.106 7.57958C273.106 7.88274 273.147 8.1657 273.167 8.5295C273.594 8.54971 273.939 8.56992 274.305 8.59013C274.65 8.59013 274.914 8.75182 274.934 9.11562C274.934 10.106 274.934 11.0963 274.934 12.1877H274.955Z" fill="#009296"/>
<path d="M320.294 46.6468C319.075 46.6468 317.999 46.6468 316.902 46.6468C316.536 46.6468 316.333 46.4447 316.312 46.0809C316.312 45.8384 316.312 45.5959 316.312 45.3533C316.312 40.3208 316.312 35.2883 316.312 30.2759C316.312 30.0334 316.312 29.7909 316.312 29.5483C316.333 29.1845 316.556 28.9824 316.902 28.9824C317.836 28.9824 318.791 28.9824 319.725 28.9824C320.131 28.9824 320.335 29.2047 320.355 29.609C320.355 29.7504 320.355 29.9121 320.355 30.0536C320.355 35.2276 320.355 40.4219 320.355 45.5959C320.355 45.899 320.314 46.182 320.294 46.6468Z" fill="#009296"/>
<path d="M318.892 22.6163C318.872 22.1514 318.852 21.8685 318.852 21.5653C318.852 17.6242 318.852 13.7032 318.852 9.76208C318.852 9.58018 318.852 9.39828 318.852 9.21638C318.852 8.81216 319.095 8.61005 319.481 8.58984C320.395 8.58984 321.309 8.58984 322.224 8.58984C322.67 8.58984 322.894 8.83238 322.894 9.27702C322.894 9.45892 322.894 9.64082 322.894 9.82272C322.894 13.7032 322.894 17.5635 322.894 21.444C322.894 21.6462 322.894 21.8685 322.894 22.0706C322.874 22.3737 322.691 22.5961 322.386 22.5961C321.269 22.5961 320.152 22.5961 318.913 22.5961L318.892 22.6163Z" fill="#009296"/>
<path d="M260.633 22.6158C260.633 22.1307 260.633 21.8276 260.633 21.5446C260.633 17.6035 260.633 13.6825 260.633 9.74138C260.633 9.59991 260.633 9.43822 260.633 9.29674C260.633 8.8521 260.856 8.60957 261.303 8.60957C262.156 8.60957 263.009 8.58936 263.863 8.60957C264.452 8.62978 264.655 8.8521 264.675 9.47864C264.695 9.86265 264.675 10.2669 264.675 10.6509C264.675 14.1878 264.675 17.7449 264.675 21.2819C264.675 21.5446 264.675 21.8276 264.675 22.0903C264.655 22.3935 264.472 22.6158 264.147 22.6158C263.03 22.6158 261.913 22.6158 260.633 22.6158Z" fill="#009296"/>
</g>
<path d="M149.623 54.8852C148.926 55.5896 148.083 55.9435 147.098 55.9435C146.113 55.9435 145.27 55.5861 144.576 54.8852C143.886 54.1808 143.539 53.3272 143.539 52.3278C143.539 51.3284 143.886 50.4922 144.587 49.7843C145.277 49.0833 146.116 48.7363 147.098 48.7363C148.08 48.7363 148.926 49.0833 149.623 49.7843C150.321 50.4887 150.668 51.3319 150.668 52.3278C150.668 53.3237 150.321 54.1773 149.623 54.8852ZM144.93 50.1417C144.333 50.7455 144.035 51.4776 144.035 52.3347C144.035 53.1918 144.33 53.9309 144.923 54.5417C145.52 55.1489 146.245 55.4543 147.098 55.4543C147.951 55.4543 148.67 55.1489 149.273 54.5417C149.866 53.9309 150.165 53.1988 150.165 52.3347C150.165 51.4707 149.866 50.742 149.273 50.1417C148.673 49.5344 147.948 49.2291 147.098 49.2291C146.248 49.2291 145.53 49.5344 144.934 50.1417M147.032 50.3429C147.518 50.3429 147.875 50.3881 148.104 50.4852C148.506 50.6552 148.708 50.9884 148.708 51.4846C148.708 51.835 148.583 52.0988 148.326 52.2653C148.191 52.3556 148.004 52.418 147.761 52.4597C148.069 52.5048 148.291 52.6366 148.434 52.8448C148.576 53.053 148.649 53.2578 148.649 53.4555V53.747C148.649 53.8407 148.649 53.9379 148.656 54.0454C148.663 54.1495 148.676 54.2155 148.69 54.2502L148.715 54.2953H148.073C148.073 54.2953 148.066 54.2675 148.062 54.2571C148.059 54.2467 148.056 54.2294 148.056 54.2155L148.042 54.0871V53.7748C148.042 53.3202 147.92 53.0183 147.67 52.8691C147.525 52.7824 147.268 52.7407 146.904 52.7407H146.356V54.2953H145.665V50.3429H147.036H147.032ZM147.778 50.9641C147.605 50.8669 147.327 50.8183 146.939 50.8183H146.349V52.2515H146.973C147.268 52.2515 147.487 52.2202 147.632 52.1612C147.903 52.0537 148.038 51.8489 148.038 51.5436C148.038 51.259 147.951 51.0647 147.778 50.9641Z" fill="#009296"/>
<path d="M115.185 25.5005H110.641V29.2412H115.185C115.688 29.2412 116.097 29.0885 116.371 28.7866C116.67 28.4605 116.874 27.7387 116.874 27.2598C116.874 26.781 116.69 26.3021 116.395 25.9759C116.076 25.6255 115.643 25.4971 115.185 25.4971V25.5005Z" fill="#009296"/>
<path d="M96.6752 27.1621L94.6875 32.4227H98.7981L96.8139 27.1621H96.6752Z" fill="#009296"/>
<path d="M59.8586 25.123C57.3784 25.123 55.4531 27.389 55.4531 30.106C55.4531 32.823 57.3784 35.1896 59.8586 35.1896C62.3389 35.1896 64.3335 32.8751 64.3335 30.106C64.3335 27.3369 62.3631 25.123 59.8586 25.123Z" fill="#009296"/>
<path d="M43.8402 25.499H39.2266V29.2397H43.8402C44.7906 29.2397 45.5538 28.3687 45.5538 27.234C45.5538 26.7795 45.3908 26.3284 45.1132 26.0022C44.7421 25.5754 44.2564 25.499 43.8402 25.499Z" fill="#009296"/>
<path d="M123.908 1.6377H71.504V13.7203H69.8355V4.23327H24.6117C11.0172 4.23327 0 15.2853 0 28.9189C0 42.5526 11.0172 53.6046 24.6117 53.6046H69.8355V44.5826H71.504V55.992H122.507C136.674 55.992 148.159 43.1287 148.159 28.9189C148.159 14.7092 138.075 1.6377 123.908 1.6377ZM31.0499 30.5256C29.9191 31.7331 28.313 32.441 25.9195 32.441H20.9486V38.9612H16.3454V19.713H25.9195C28.365 19.713 30.1272 20.4799 31.3136 21.9234C32.2085 23.013 32.7323 24.401 32.7323 25.9625C32.7323 27.642 32.101 29.4047 31.0499 30.5256ZM45.7129 38.3643L42.8164 32.8192H39.2226V38.3643H35.1675V21.9303H43.6038C45.9002 21.9303 47.3363 22.659 48.3111 23.7694C49.1228 24.6994 49.6084 25.9104 49.6084 27.2672C49.6084 29.2798 48.5435 31.1085 46.8264 32.0662L50.3057 38.3678H45.7164L45.7129 38.3643ZM59.8729 38.8675C55.0511 38.8675 51.2735 34.9672 51.2735 30.1092C51.2735 25.2511 55.0511 21.4237 59.8729 21.4237C64.6946 21.4237 68.5659 25.324 68.5659 30.1092C68.5659 34.8943 64.6946 38.8675 59.8729 38.8675ZM79.8189 38.9161C74.4352 38.9161 70.8692 34.6202 70.8692 29.3631C70.8692 24.106 74.4595 19.8379 79.6975 19.8379C82.6461 19.8379 85.6466 21.1045 87.7141 22.9228L85.1332 26.0597C83.6347 24.6821 81.6921 23.884 80.2421 23.884C77.2658 23.884 75.351 26.3893 75.351 29.3909C75.351 32.3924 77.3179 34.8978 80.367 34.8978C82.2367 34.8978 84.1793 33.659 85.605 32.1703L88.2101 35.2552C86.2676 37.181 83.3676 38.9161 79.8259 38.9161H79.8189ZM101.038 38.3643L100.081 35.8486H93.4135L92.4769 38.3643H88.2518L95.1687 21.9303H98.478L105.395 38.3643H101.035H101.038ZM119.416 31.1814C118.434 32.212 117.04 32.8158 114.966 32.8158H110.65V38.3609H106.654V21.9269H114.966C117.089 21.9269 118.618 22.5827 119.645 23.8146C120.422 24.7445 120.877 25.9278 120.877 27.2637C120.877 28.6969 120.328 30.2237 119.416 31.1814ZM129.472 38.8675C125.681 38.8675 123.013 37.2817 121.21 35.8208L123.357 32.8262C124.384 33.6312 126.76 35.4183 129.407 35.4183C131.255 35.4183 132.327 34.5369 132.327 33.4543C132.327 32.271 131.047 32.0454 129.133 31.8685C125.799 31.5666 121.942 31.1883 121.942 26.7849C121.942 22.7076 125.39 21.4237 128.29 21.4237C131.349 21.4237 134.065 22.5549 135.411 23.4363L133.243 26.5073C132.261 25.8792 130.388 24.8972 128.196 24.8972C126.985 24.8972 125.934 25.501 125.934 26.5593C125.934 27.7183 127.648 27.8189 129.268 27.9924C132.008 28.1937 136.324 28.5962 136.324 33.076C136.324 37.2296 133.219 38.864 129.472 38.864V38.8675Z" fill="#009296"/>
<path d="M26.1799 23.8955H20.9453V28.2538H26.1799C26.7592 28.2538 27.2309 28.0769 27.5466 27.7229C27.8865 27.3412 28.1259 26.5188 28.1259 25.9602C28.1259 25.4015 27.9143 24.8393 27.5743 24.4576C27.2066 24.0447 26.7071 23.899 26.1799 23.899V23.8955Z" fill="#009296"/>
<line x1="167.289" y1="1.09278e-08" x2="167.289" y2="55.6813" stroke="#009296" stroke-width="0.5"/>
<defs>
<clipPath id="clip0_1118_2156">
<rect width="155.58" height="55.6813" fill="white" transform="translate(183.422)"/>
</clipPath>
</defs>
</svg>
