<svg preserveAspectRatio="xMidYMid meet" width="100%" height="100%" overflow="visible" style="display: block;" viewBox="0 0 153.42 56.2604" fill="none" xmlns="http://www.w3.org/2000/svg">
<g id="logo">
<path id="Vector" d="M119.259 24.7019H114.55V28.5696H119.259C119.774 28.5696 120.205 28.412 120.488 28.0967C120.793 27.7603 121.014 27.0141 121.014 26.5201C121.014 26.0262 120.825 25.5322 120.52 25.1959C120.173 24.828 119.721 24.7019 119.259 24.7019Z" fill="var(--fill-0, #009296)"/>
<path id="Vector_2" d="M100.073 26.4133L98.0133 31.8575H102.27L100.21 26.4133H100.073Z" fill="var(--fill-0, #009296)"/>
<path id="Vector_3" d="M45.3722 24.7019H40.6008V28.5696H45.3722C46.3601 28.5696 47.1483 27.6657 47.1483 26.4991C47.1483 26.0262 46.9802 25.5637 46.6964 25.2274C46.3076 24.7755 45.8136 24.7019 45.3722 24.7019Z" fill="var(--fill-0, #009296)"/>
<path id="Vector_4" d="M27.1134 23.0344H21.6903V27.5432H27.1134C27.7124 27.5432 28.2064 27.3646 28.5322 26.9967C28.8895 26.5973 29.1312 25.7565 29.1312 25.168C29.1312 24.5899 28.9105 24.0119 28.5637 23.6125C28.1748 23.1816 27.6599 23.0344 27.1134 23.0344Z" fill="var(--fill-0, #009296)"/>
<path id="Vector_5" d="M61.9737 24.3022C59.4093 24.3022 57.4125 26.646 57.4125 29.4627C57.4125 32.3319 59.3988 34.7282 61.9737 34.7282C64.5696 34.7282 66.6085 32.3319 66.6085 29.4627C66.6085 26.6565 64.5591 24.3022 61.9737 24.3022Z" fill="var(--fill-0, #009296)"/>
<path id="Vector_6" d="M128.261 0H126.811H74.0098V12.507H72.2862V2.69058H25.4757C11.4031 2.69058 0 14.1255 0 28.2406C0 42.3451 11.4031 53.7905 25.4757 53.7905H72.2862V44.4576H74.0098V56.2604H126.811C141.472 56.2604 153.369 42.9441 153.369 28.2406C153.369 13.5265 142.933 0 128.261 0ZM32.1389 29.8906C30.9723 31.1413 29.3117 31.877 26.8314 31.877H21.6817V38.6245H16.9207V18.7079H26.8314C29.3643 18.7079 31.1825 19.4962 32.4121 20.9991C33.337 22.1237 33.8835 23.5636 33.8835 25.1821C33.8835 26.9058 33.2319 28.7345 32.1389 29.8906ZM47.315 38.0044L44.3197 32.2659H40.5992V38.0044H36.3953V20.9991H45.1289C47.5042 20.9991 48.9965 21.7558 50.0055 22.9014C50.8462 23.8684 51.3507 25.1191 51.3507 26.5169C51.3507 28.5979 50.2472 30.4897 48.471 31.4882L52.0759 38.0044H47.315ZM61.9761 38.5299C56.984 38.5299 53.0743 34.494 53.0743 29.4702C53.0743 24.52 56.984 20.4841 61.9761 20.4841C66.9682 20.4841 70.9725 24.52 70.9725 29.4702C70.9725 34.4835 66.9682 38.5299 61.9761 38.5299ZM82.6173 38.572C77.0471 38.572 73.3477 34.1262 73.3477 28.682C73.3477 23.3534 77.0681 18.8235 82.4807 18.8235C85.539 18.8235 88.6394 20.1373 90.7729 22.0186L88.1034 25.2662C86.5479 23.8368 84.5406 23.0171 83.0377 23.0171C79.9583 23.0171 77.972 25.613 77.972 28.7135C77.972 31.814 80.0109 34.41 83.1638 34.41C85.0976 34.41 87.105 33.1277 88.5868 31.5933L91.2878 34.7883C89.291 36.7747 86.2852 38.572 82.6173 38.572ZM104.583 38.0044L103.595 35.3979H96.6899L95.723 38.0044H91.3509L98.5081 20.9991H101.934L109.102 38.0044H104.583ZM123.616 30.5738C122.596 31.6458 121.157 32.2659 119.002 32.2659H114.535V38.0044H110.395V20.9991H119.002C121.199 20.9991 122.786 21.6718 123.847 22.954C124.656 23.9209 125.119 25.1401 125.119 26.5274C125.119 27.9988 124.551 29.5858 123.616 30.5738ZM134.021 38.5299C130.1 38.5299 127.336 36.8903 125.466 35.3769L127.683 32.2764C128.745 33.1067 131.204 34.9565 133.947 34.9565C135.86 34.9565 136.974 34.0421 136.974 32.928C136.974 31.7089 135.65 31.4671 133.663 31.2885C130.216 30.9732 126.222 30.5843 126.222 26.0229C126.222 21.8084 129.796 20.4736 132.791 20.4736C135.954 20.4736 138.771 21.6507 140.169 22.5546L137.92 25.7286C136.9 25.077 134.966 24.0575 132.696 24.0575C131.446 24.0575 130.353 24.6776 130.353 25.7812C130.353 26.9793 132.129 27.0844 133.8 27.2631C136.638 27.4733 141.104 27.8832 141.104 32.5287C141.115 36.8378 137.899 38.5299 134.021 38.5299Z" fill="var(--fill-0, #009296)"/>
<path id="Vector_7" d="M152.347 49.6936C151.622 48.9684 150.75 48.6111 149.73 48.6111C148.711 48.6111 147.839 48.9684 147.124 49.6936C146.399 50.4293 146.031 51.3017 146.031 52.3317C146.031 53.3721 146.388 54.255 147.103 54.9907C147.818 55.7159 148.701 56.0943 149.72 56.0943C150.75 56.0943 151.622 55.7264 152.337 54.9907C153.062 54.255 153.419 53.3721 153.419 52.3317C153.43 51.3017 153.073 50.4293 152.347 49.6936ZM151.98 54.6334C151.36 55.264 150.603 55.5793 149.72 55.5793C148.837 55.5793 148.08 55.264 147.46 54.6334C146.84 54.0028 146.536 53.2355 146.536 52.3422C146.536 51.4488 146.84 50.6921 147.46 50.0615C148.08 49.4309 148.827 49.1156 149.709 49.1156C150.592 49.1156 151.338 49.4309 151.969 50.0615C152.589 50.6816 152.894 51.4488 152.894 52.3422C152.904 53.2355 152.6 54.0028 151.98 54.6334Z" fill="var(--fill-0, #009296)"/>
<path id="Vector_8" d="M151.34 54.1147C151.329 53.9991 151.329 53.9045 151.329 53.8099V53.5052C151.329 53.3055 151.255 53.0848 151.108 52.8746C150.961 52.6538 150.73 52.5172 150.404 52.4752C150.656 52.4331 150.856 52.3701 150.993 52.2755C151.255 52.1073 151.392 51.8341 151.392 51.4662C151.392 50.9512 151.182 50.6044 150.762 50.4257C150.52 50.3206 150.152 50.2786 149.647 50.2786H148.229V54.3775H148.943V52.7589H149.511C149.889 52.7589 150.152 52.801 150.31 52.8956C150.572 53.0427 150.698 53.358 150.698 53.831V54.1568L150.719 54.2934C150.719 54.3144 150.719 54.3249 150.73 54.3355C150.73 54.346 150.74 54.367 150.74 54.3775H151.413L151.392 54.3249C151.361 54.2829 151.35 54.2198 151.34 54.1147ZM150.278 52.1599C150.131 52.2229 149.9 52.2545 149.595 52.2545H148.943V50.762H149.553C149.952 50.762 150.247 50.8146 150.425 50.9092C150.604 51.0143 150.698 51.214 150.698 51.5082C150.698 51.8341 150.562 52.0443 150.278 52.1599Z" fill="var(--fill-0, #009296)"/>
</g>
</svg>
